<svg xmlns="http://www.w3.org/2000/svg" xmlns:xlink="http://www.w3.org/1999/xlink" width="800" zoomAndPan="magnify" viewBox="0 0 600 599.999999" height="800" preserveAspectRatio="xMidYMid meet" version="1.0"><defs><g/><clipPath id="a09e085dd4"><path d="M 0 122 L 587 122 L 587 511.769531 L 0 511.769531 Z M 0 122 " clip-rule="nonzero"/></clipPath><clipPath id="6fe6f430cf"><path d="M 0 103.769531 L 600 103.769531 L 600 506 L 0 506 Z M 0 103.769531 " clip-rule="nonzero"/></clipPath></defs><g clip-path="url(#a09e085dd4)"><path fill="#00bf63" d="M 295.792969 511.050781 L 298.515625 506.21875 L 300.925781 501.441406 L 303.347656 496.828125 L 305.703125 492.378906 L 307.960938 487.996094 L 310.085938 483.816406 L 312.195312 479.964844 L 314.320312 476.261719 L 316.347656 472.929688 L 318.46875 469.921875 L 320.578125 467.183594 L 322.785156 464.695312 L 325.207031 462.800781 L 327.535156 461.140625 L 330.039062 460.082031 L 332.761719 459.398438 L 336.328125 459.183594 L 340.097656 459.480469 L 343.960938 460.3125 L 348.113281 461.589844 L 352.347656 463.265625 L 356.578125 465.386719 L 360.960938 467.867188 L 365.359375 470.75 L 369.742188 473.921875 L 374.125 477.257812 L 378.207031 480.878906 L 382.386719 484.660156 L 386.375 488.675781 L 390.171875 492.675781 L 393.722656 496.828125 L 397.058594 501.0625 L 397.058594 487.003906 L 397.113281 482.386719 L 397.355469 477.855469 L 397.722656 473.324219 L 398.335938 468.84375 L 399.167969 464.613281 L 400.066406 460.53125 L 401.507812 456.675781 L 403.019531 452.976562 L 405.058594 449.722656 L 407.550781 446.46875 L 410.273438 443.828125 L 413.527344 441.324219 L 417.308594 439.203125 L 418.96875 438.453125 L 420.863281 437.855469 L 422.984375 437.324219 L 425.394531 436.777344 L 427.898438 436.492188 L 430.457031 436.246094 L 433.261719 435.949219 L 436.214844 435.730469 L 445.972656 435.730469 L 449.375 435.878906 L 452.929688 436.097656 L 456.480469 436.328125 L 460.265625 436.722656 L 464.050781 437.171875 L 467.832031 437.554688 L 471.601562 438.152344 L 475.46875 438.683594 L 479.402344 439.28125 L 483.253906 440.03125 L 487.1875 440.726562 L 491.039062 441.40625 L 494.824219 442.238281 L 498.605469 443.214844 L 502.375 444.058594 L 506.09375 445.109375 L 509.710938 446.019531 L 513.277344 447.070312 L 516.75 448.144531 L 520.152344 449.191406 L 523.335938 450.402344 L 520.003906 445.558594 L 517.046875 440.957031 L 514.246094 436.722656 L 511.769531 432.695312 L 509.414062 428.925781 L 507.289062 425.210938 L 505.261719 421.820312 L 503.507812 418.417969 L 501.859375 415.097656 L 500.417969 411.914062 L 498.972656 408.589844 L 497.84375 405.257812 L 496.699219 401.855469 L 495.652344 398.300781 L 494.824219 394.667969 L 494.074219 390.734375 L 493.242188 385.902344 L 492.917969 381.058594 L 493.242188 376.210938 L 493.761719 371.460938 L 494.972656 366.832031 L 496.414062 362.371094 L 498.292969 357.917969 L 500.5 353.753906 L 503.003906 349.601562 L 505.710938 345.820312 L 508.8125 342.265625 L 512.136719 339.011719 L 515.550781 335.910156 L 519.171875 333.1875 L 522.886719 330.847656 L 526.738281 328.804688 L 530.441406 327.144531 L 533.992188 325.769531 L 537.628906 324.421875 L 541.410156 323.117188 L 545.113281 322.070312 L 548.898438 321.007812 L 552.519531 320.109375 L 556.300781 319.113281 L 560.085938 318.285156 L 563.871094 317.386719 L 567.640625 316.554688 L 571.421875 315.710938 L 575.207031 314.882812 L 578.992188 313.902344 L 582.625 313.003906 L 586.394531 311.929688 L 582.625 310.878906 L 578.992188 309.902344 L 575.207031 308.988281 L 571.421875 308.144531 L 567.640625 307.328125 L 563.871094 306.496094 L 560.085938 305.519531 L 556.300781 304.6875 L 552.519531 303.761719 L 548.898438 302.78125 L 545.113281 301.734375 L 541.410156 300.660156 L 537.628906 299.378906 L 533.992188 298.101562 L 530.441406 296.65625 L 526.738281 294.996094 L 522.886719 293.023438 L 519.171875 290.695312 L 515.550781 287.972656 L 512.136719 284.871094 L 508.8125 281.535156 L 505.710938 277.984375 L 503.003906 274.199219 L 500.5 270.117188 L 498.292969 265.964844 L 496.414062 261.5 L 494.972656 256.96875 L 493.761719 252.339844 L 493.242188 247.660156 L 492.917969 242.828125 L 493.242188 237.980469 L 494.074219 233.136719 L 494.824219 229.203125 L 495.652344 225.582031 L 496.699219 222.03125 L 497.84375 218.546875 L 498.972656 215.292969 L 500.417969 211.957031 L 501.859375 208.789062 L 503.507812 205.453125 L 505.261719 202.050781 L 507.289062 198.59375 L 509.414062 194.957031 L 511.769531 191.160156 L 514.246094 187.160156 L 517.046875 182.925781 L 520.003906 178.3125 L 523.335938 173.480469 L 520.152344 174.609375 L 516.75 175.660156 L 513.277344 176.734375 L 509.710938 177.78125 L 506.09375 178.761719 L 502.375 179.824219 L 498.605469 180.667969 L 494.824219 181.566406 L 491.039062 182.394531 L 487.1875 183.144531 L 483.253906 183.824219 L 479.402344 184.519531 L 475.46875 185.117188 L 471.601562 185.730469 L 467.832031 186.328125 L 464.050781 186.710938 L 460.265625 187.160156 L 456.480469 187.460938 L 452.929688 187.773438 L 449.375 188.003906 L 445.972656 188.070312 L 436.214844 188.070312 L 433.261719 187.855469 L 430.457031 187.609375 L 427.898438 187.378906 L 425.394531 187.011719 L 422.984375 186.546875 L 420.863281 185.949219 L 418.96875 185.351562 L 417.308594 184.667969 L 413.527344 182.546875 L 410.273438 180.042969 L 407.550781 177.332031 L 405.058594 174.160156 L 403.019531 170.828125 L 401.507812 167.191406 L 400.066406 163.273438 L 399.167969 159.109375 L 398.335938 155.023438 L 397.722656 150.480469 L 397.355469 146.027344 L 397.113281 141.414062 L 397.058594 136.785156 L 397.058594 122.742188 L 393.722656 126.972656 L 390.171875 131.125 L 386.375 135.125 L 382.386719 139.140625 L 378.207031 142.925781 L 374.125 146.628906 L 369.742188 149.949219 L 365.359375 153.132812 L 360.960938 155.9375 L 356.578125 158.414062 L 352.347656 160.539062 L 348.113281 162.199219 L 343.960938 163.492188 L 340.097656 164.320312 L 336.328125 164.703125 L 332.761719 164.472656 L 330.039062 164.023438 L 327.382812 163.421875 L 324.976562 162.660156 L 322.484375 161.816406 L 320.144531 160.769531 L 317.722656 159.640625 L 315.367188 158.210938 L 313.039062 156.453125 L 310.683594 154.425781 L 308.261719 152.152344 L 305.921875 149.582031 L 303.578125 146.476562 L 301.074219 143.238281 L 298.585938 139.441406 L 296.011719 135.277344 L 293.289062 130.675781 L 290.566406 135.277344 L 287.996094 139.441406 L 285.503906 143.238281 L 283 146.476562 L 280.671875 149.582031 L 278.238281 152.152344 L 275.894531 154.425781 L 273.554688 156.453125 L 271.214844 158.210938 L 268.777344 159.640625 L 266.449219 160.769531 L 264.09375 161.816406 L 261.617188 162.660156 L 259.113281 163.421875 L 256.542969 164.023438 L 253.804688 164.472656 L 250.253906 164.703125 L 246.496094 164.320312 L 242.617188 163.492188 L 238.464844 162.199219 L 234.234375 160.539062 L 229.917969 158.414062 L 225.617188 155.9375 L 221.234375 153.132812 L 216.839844 149.949219 L 212.457031 146.628906 L 208.292969 142.925781 L 204.207031 139.140625 L 200.207031 135.125 L 196.421875 131.125 L 192.871094 126.972656 L 189.535156 122.742188 L 189.535156 136.785156 L 189.386719 141.414062 L 189.167969 146.027344 L 188.871094 150.480469 L 188.242188 155.023438 L 187.414062 159.109375 L 186.433594 163.273438 L 185.085938 167.191406 L 183.480469 170.828125 L 181.53125 174.160156 L 179.027344 177.332031 L 176.304688 180.042969 L 172.972656 182.546875 L 169.1875 184.667969 L 167.542969 185.351562 L 165.636719 185.949219 L 163.527344 186.546875 L 161.183594 187.011719 L 158.679688 187.378906 L 156.121094 187.609375 L 153.238281 187.855469 L 150.28125 188.070312 L 140.621094 188.070312 L 137.21875 188.003906 L 133.664062 187.773438 L 130.085938 187.460938 L 126.328125 187.160156 L 122.679688 186.710938 L 118.746094 186.328125 L 114.964844 185.730469 L 111.058594 185.117188 L 107.179688 184.519531 L 103.246094 183.824219 L 99.394531 183.144531 L 95.460938 182.394531 L 91.675781 181.566406 L 87.90625 180.667969 L 84.121094 179.824219 L 80.488281 178.761719 L 76.785156 177.78125 L 73.234375 176.734375 L 69.832031 175.660156 L 66.429688 174.609375 L 63.242188 173.480469 L 66.496094 178.3125 L 69.449219 182.925781 L 72.320312 187.160156 L 74.8125 191.160156 L 77.167969 194.957031 L 79.289062 198.59375 L 81.316406 202.050781 L 83.058594 205.453125 L 84.722656 208.789062 L 86.164062 211.957031 L 87.605469 215.292969 L 88.734375 218.546875 L 89.785156 222.03125 L 90.859375 225.582031 L 91.675781 229.203125 L 92.507812 233.136719 L 93.351562 237.980469 L 93.582031 242.828125 L 93.351562 247.660156 L 92.738281 252.339844 L 91.609375 256.96875 L 90.179688 261.5 L 88.273438 265.964844 L 86.164062 270.117188 L 83.523438 274.199219 L 80.789062 277.984375 L 77.765625 281.535156 L 74.429688 284.871094 L 71.027344 287.972656 L 67.328125 290.695312 L 63.691406 293.023438 L 59.773438 294.996094 L 56.136719 296.65625 L 52.585938 298.101562 L 48.953125 299.378906 L 45.167969 300.660156 L 41.464844 301.734375 L 37.683594 302.78125 L 34.046875 303.761719 L 30.277344 304.6875 L 26.496094 305.519531 L 22.710938 306.496094 L 18.925781 307.328125 L 15.15625 308.144531 L 11.371094 308.988281 L 7.589844 309.902344 L 3.886719 310.878906 L 0.101562 311.929688 L 3.886719 313.003906 L 7.589844 313.902344 L 11.371094 314.882812 L 15.15625 315.710938 L 18.925781 316.554688 L 22.710938 317.386719 L 26.496094 318.285156 L 30.277344 319.113281 L 34.046875 320.109375 L 37.683594 321.007812 L 41.464844 322.070312 L 45.167969 323.117188 L 48.953125 324.421875 L 52.585938 325.769531 L 56.136719 327.144531 L 59.773438 328.804688 L 63.691406 330.847656 L 67.328125 333.1875 L 71.027344 335.910156 L 74.429688 339.011719 L 77.765625 342.265625 L 80.789062 345.820312 L 83.523438 349.601562 L 86.164062 353.753906 L 88.273438 357.917969 L 90.179688 362.371094 L 91.609375 366.832031 L 92.738281 371.460938 L 93.351562 376.210938 L 93.582031 381.058594 L 93.351562 385.902344 L 92.507812 390.734375 L 91.675781 394.667969 L 90.859375 398.300781 L 89.785156 401.855469 L 88.734375 405.257812 L 87.605469 408.589844 L 86.164062 411.914062 L 84.722656 415.097656 L 83.058594 418.417969 L 81.316406 421.820312 L 79.289062 425.210938 L 77.167969 428.925781 L 74.8125 432.695312 L 72.320312 436.722656 L 69.449219 440.957031 L 66.496094 445.558594 L 63.242188 450.402344 L 66.429688 449.191406 L 69.832031 448.144531 L 73.234375 447.070312 L 76.785156 446.019531 L 80.488281 445.109375 L 84.121094 444.058594 L 87.90625 443.214844 L 91.675781 442.238281 L 95.460938 441.40625 L 99.394531 440.726562 L 103.246094 440.03125 L 107.179688 439.28125 L 111.058594 438.683594 L 114.964844 438.152344 L 118.746094 437.554688 L 122.679688 437.171875 L 126.328125 436.722656 L 130.085938 436.328125 L 133.664062 436.097656 L 137.21875 435.878906 L 140.621094 435.730469 L 150.28125 435.730469 L 153.238281 435.949219 L 156.121094 436.246094 L 158.679688 436.492188 L 161.183594 436.777344 L 163.527344 437.324219 L 165.636719 437.855469 L 167.542969 438.453125 L 169.1875 439.203125 L 172.972656 441.324219 L 176.304688 443.828125 L 179.027344 446.46875 L 181.53125 449.722656 L 183.480469 452.976562 L 185.085938 456.675781 L 186.433594 460.53125 L 187.414062 464.613281 L 188.242188 468.84375 L 188.871094 473.324219 L 189.167969 477.855469 L 189.386719 482.386719 L 189.535156 487.003906 L 189.535156 501.0625 L 192.871094 496.828125 L 196.421875 492.675781 L 200.207031 488.675781 L 204.207031 484.660156 L 208.292969 480.878906 L 212.457031 477.257812 L 216.839844 473.921875 L 221.234375 470.75 L 225.617188 467.867188 L 229.917969 465.386719 L 234.234375 463.265625 L 238.464844 461.589844 L 242.617188 460.3125 L 246.496094 459.480469 L 250.253906 459.183594 L 253.804688 459.398438 L 256.542969 460.082031 L 259.261719 461.140625 L 261.820312 462.800781 L 264.476562 464.695312 L 267.046875 467.183594 L 269.621094 469.921875 L 272.261719 472.929688 L 274.832031 476.261719 L 277.339844 479.964844 L 279.898438 483.816406 L 282.550781 487.996094 L 285.125 492.378906 L 287.695312 496.828125 L 290.335938 501.441406 L 293.058594 506.21875 L 295.792969 511.050781 " fill-opacity="1" fill-rule="nonzero"/></g><path fill="#ffffff" d="M 306.300781 495.332031 L 309.011719 490.472656 L 311.433594 485.722656 L 313.871094 481.109375 L 316.195312 476.628906 L 318.46875 472.25 L 320.578125 468.097656 L 322.703125 464.246094 L 324.824219 460.53125 L 326.867188 457.277344 L 328.992188 454.171875 L 331.101562 451.464844 L 333.375 448.960938 L 335.714844 447.070312 L 338.054688 445.40625 L 340.558594 444.359375 L 343.28125 443.679688 L 346.835938 443.433594 L 350.617188 443.828125 L 354.46875 444.578125 L 358.632812 445.9375 L 362.867188 447.613281 L 367.101562 449.722656 L 371.496094 452.144531 L 375.878906 455.003906 L 380.261719 458.203125 L 384.644531 461.507812 L 388.726562 465.144531 L 392.878906 468.925781 L 396.878906 472.929688 L 400.664062 477.011719 L 404.214844 481.109375 L 407.550781 485.421875 L 407.550781 471.351562 L 407.644531 466.734375 L 407.851562 462.136719 L 408.246094 457.574219 L 408.84375 453.125 L 409.675781 448.890625 L 410.574219 444.890625 L 412.027344 440.957031 L 413.527344 437.324219 L 415.582031 433.988281 L 418.058594 430.816406 L 420.792969 428.09375 L 424.117188 425.605469 L 427.898438 423.480469 L 429.476562 422.734375 L 431.382812 422.203125 L 433.574219 421.601562 L 435.914062 421.125 L 438.40625 420.757812 L 440.992188 420.527344 L 443.769531 420.308594 L 446.804688 419.996094 L 456.480469 419.996094 L 459.882812 420.148438 L 463.449219 420.378906 L 467.003906 420.609375 L 470.785156 420.976562 L 474.554688 421.453125 L 478.339844 421.820312 L 482.125 422.433594 L 485.976562 423.03125 L 489.910156 423.5625 L 493.761719 424.3125 L 497.695312 424.992188 L 501.628906 425.6875 L 505.410156 426.503906 L 509.195312 427.484375 L 512.964844 428.3125 L 516.597656 429.386719 L 520.234375 430.285156 L 523.785156 431.347656 L 527.269531 432.492188 L 530.671875 433.539062 L 533.84375 434.667969 L 530.523438 429.835938 L 527.570312 425.210938 L 524.765625 420.976562 L 522.261719 416.976562 L 519.933594 413.191406 L 517.824219 409.488281 L 515.769531 406.085938 L 514.027344 402.683594 L 512.367188 399.347656 L 510.9375 396.191406 L 509.496094 392.855469 L 508.363281 389.535156 L 507.289062 386.132812 L 506.160156 382.566406 L 505.410156 378.945312 L 504.582031 375.015625 L 503.75 370.167969 L 503.507812 365.324219 L 503.75 360.492188 L 504.28125 355.714844 L 505.480469 351.179688 L 506.9375 346.648438 L 508.8125 342.183594 L 511.074219 338.035156 L 513.496094 333.882812 L 516.21875 330.085938 L 519.320312 326.601562 L 522.65625 323.292969 L 526.058594 320.191406 L 529.691406 317.453125 L 533.394531 315.113281 L 537.246094 313.070312 L 540.949219 311.480469 L 544.515625 310.050781 L 548.136719 308.769531 L 551.917969 307.394531 L 555.621094 306.347656 L 559.40625 305.285156 L 563.039062 304.375 L 566.824219 303.394531 L 570.59375 302.5625 L 574.375 301.652344 L 578.160156 300.835938 L 581.945312 299.992188 L 585.714844 299.160156 L 589.5 298.25 L 593.132812 297.257812 L 596.914062 296.207031 L 593.132812 295.148438 L 589.5 294.152344 L 585.714844 293.253906 L 581.945312 292.425781 L 574.375 290.765625 L 570.59375 289.867188 L 566.824219 289.023438 L 563.039062 288.042969 L 559.40625 287.144531 L 555.621094 286.066406 L 551.917969 285.019531 L 548.136719 283.660156 L 544.515625 282.367188 L 540.949219 280.9375 L 537.246094 279.332031 L 533.394531 277.304688 L 529.691406 274.949219 L 526.058594 272.238281 L 522.65625 269.136719 L 519.320312 265.816406 L 516.21875 262.332031 L 513.496094 258.546875 L 511.074219 254.394531 L 508.8125 250.230469 L 506.9375 245.765625 L 505.480469 241.234375 L 504.28125 236.621094 L 503.75 231.9375 L 503.507812 227.078125 L 503.75 222.25 L 504.582031 217.417969 L 505.410156 213.484375 L 506.160156 209.835938 L 507.289062 206.296875 L 508.363281 202.894531 L 509.496094 199.574219 L 510.9375 196.238281 L 512.367188 193.066406 L 514.027344 189.730469 L 515.769531 186.328125 L 517.824219 182.925781 L 519.933594 179.226562 L 522.261719 175.441406 L 524.765625 171.425781 L 527.570312 167.191406 L 530.523438 162.59375 L 533.84375 157.734375 L 530.671875 158.890625 L 527.269531 159.9375 L 523.785156 161 L 520.234375 162.144531 L 516.597656 163.042969 L 512.964844 164.089844 L 509.195312 164.921875 L 505.410156 165.914062 L 501.628906 166.675781 L 497.695312 167.425781 L 493.761719 168.105469 L 489.910156 168.855469 L 485.976562 169.398438 L 482.125 169.996094 L 478.339844 170.609375 L 474.554688 170.976562 L 470.785156 171.425781 L 467.003906 171.808594 L 463.449219 172.039062 L 459.882812 172.257812 L 456.480469 172.339844 L 446.804688 172.339844 L 443.769531 172.105469 L 440.992188 171.890625 L 438.40625 171.65625 L 435.914062 171.277344 L 433.574219 170.828125 L 431.382812 170.226562 L 429.476562 169.699219 L 427.898438 168.933594 L 424.117188 166.824219 L 420.792969 164.320312 L 418.058594 161.597656 L 415.582031 158.414062 L 413.527344 155.105469 L 412.027344 151.472656 L 410.574219 147.527344 L 409.675781 143.441406 L 408.84375 139.292969 L 408.246094 134.828125 L 407.851562 130.292969 L 407.644531 125.679688 L 407.550781 121.066406 L 407.550781 106.992188 L 404.214844 111.320312 L 400.664062 115.40625 L 396.878906 119.40625 L 392.878906 123.488281 L 388.726562 127.273438 L 384.644531 130.894531 L 380.261719 134.226562 L 375.878906 137.398438 L 371.496094 140.203125 L 367.101562 142.695312 L 362.867188 144.816406 L 358.632812 146.476562 L 354.46875 147.769531 L 350.617188 148.601562 L 346.835938 148.96875 L 343.28125 148.75 L 340.558594 148.300781 L 337.90625 147.675781 L 335.496094 146.996094 L 332.992188 146.179688 L 330.636719 145.117188 L 328.226562 143.917969 L 325.886719 142.460938 L 323.53125 140.734375 L 321.207031 138.691406 L 318.769531 136.433594 L 316.441406 133.847656 L 314.085938 130.742188 L 311.597656 127.492188 L 309.09375 123.722656 L 306.53125 119.554688 L 303.796875 114.941406 L 301.074219 119.554688 L 298.515625 123.722656 L 296.011719 127.492188 L 293.519531 130.742188 L 291.179688 133.847656 L 288.757812 136.433594 L 286.402344 138.691406 L 284.074219 140.734375 L 281.722656 142.460938 L 279.296875 143.917969 L 276.957031 145.117188 L 274.617188 146.179688 L 272.113281 146.996094 L 269.621094 147.675781 L 267.046875 148.300781 L 264.328125 148.75 L 260.773438 148.96875 L 256.992188 148.601562 L 253.136719 147.769531 L 248.972656 146.476562 L 244.742188 144.816406 L 240.441406 142.695312 L 236.113281 140.203125 L 231.730469 137.398438 L 227.347656 134.226562 L 222.964844 130.894531 L 218.8125 127.273438 L 214.730469 123.488281 L 210.699219 119.40625 L 206.917969 115.40625 L 203.378906 111.320312 L 200.058594 106.992188 L 200.058594 121.066406 L 199.90625 125.679688 L 199.675781 130.292969 L 199.363281 134.828125 L 198.765625 139.292969 L 197.933594 143.441406 L 196.953125 147.527344 L 195.578125 151.472656 L 194 155.105469 L 192.039062 158.414062 L 189.535156 161.597656 L 186.8125 164.320312 L 183.480469 166.824219 L 179.710938 168.933594 L 178.046875 169.699219 L 176.15625 170.226562 L 174.046875 170.828125 L 171.691406 171.277344 L 169.1875 171.65625 L 166.617188 171.890625 L 163.757812 172.105469 L 160.804688 172.339844 L 151.113281 172.339844 L 147.710938 172.257812 L 144.160156 172.039062 L 140.621094 171.808594 L 136.820312 171.425781 L 133.1875 170.976562 L 129.269531 170.609375 L 125.484375 169.996094 L 121.632812 169.398438 L 117.699219 168.855469 L 113.765625 168.105469 L 109.914062 167.425781 L 105.980469 166.675781 L 102.195312 165.914062 L 98.414062 164.921875 L 94.628906 164.089844 L 91.007812 163.042969 L 87.292969 162.144531 L 83.824219 161 L 80.339844 159.9375 L 76.933594 158.890625 L 73.765625 157.734375 L 77.015625 162.59375 L 80.039062 167.191406 L 82.84375 171.425781 L 85.320312 175.441406 L 87.675781 179.226562 L 89.785156 182.925781 L 91.839844 186.328125 L 93.582031 189.730469 L 95.242188 193.066406 L 96.683594 196.238281 L 98.113281 199.574219 L 99.242188 202.894531 L 100.320312 206.296875 L 101.367188 209.835938 L 102.195312 213.484375 L 103.027344 217.417969 L 103.871094 222.25 L 104.074219 227.078125 L 103.871094 231.9375 L 103.246094 236.621094 L 102.113281 241.234375 L 100.671875 245.765625 L 98.792969 250.230469 L 96.683594 254.394531 L 94.03125 258.546875 L 91.375 262.332031 L 88.273438 265.816406 L 84.953125 269.136719 L 81.550781 272.238281 L 77.832031 274.949219 L 74.214844 277.304688 L 70.28125 279.332031 L 66.644531 280.9375 L 63.09375 282.367188 L 59.460938 283.660156 L 55.6875 285.019531 L 51.972656 286.066406 L 48.203125 287.144531 L 44.570312 288.042969 L 40.785156 289.023438 L 37 289.867188 L 33.230469 290.765625 L 21.878906 293.253906 L 18.097656 294.152344 L 14.394531 295.148438 L 10.609375 296.207031 L 14.394531 297.257812 L 18.097656 298.25 L 21.878906 299.160156 L 25.664062 299.992188 L 29.449219 300.835938 L 33.230469 301.652344 L 37 302.5625 L 40.785156 303.394531 L 44.570312 304.375 L 48.203125 305.285156 L 51.972656 306.347656 L 55.6875 307.394531 L 59.460938 308.769531 L 63.09375 310.050781 L 66.644531 311.480469 L 70.28125 313.070312 L 74.214844 315.113281 L 77.832031 317.453125 L 81.550781 320.191406 L 84.953125 323.292969 L 88.273438 326.601562 L 91.375 330.085938 L 94.03125 333.882812 L 96.683594 338.035156 L 98.792969 342.183594 L 100.671875 346.648438 L 102.113281 351.179688 L 103.246094 355.714844 L 103.871094 360.492188 L 104.074219 365.324219 L 103.871094 370.167969 L 103.027344 375.015625 L 102.195312 378.945312 L 101.367188 382.566406 L 100.320312 386.132812 L 99.242188 389.535156 L 98.113281 392.855469 L 96.683594 396.191406 L 95.242188 399.347656 L 93.582031 402.683594 L 91.839844 406.085938 L 89.785156 409.488281 L 87.675781 413.191406 L 85.320312 416.976562 L 82.84375 420.976562 L 80.039062 425.210938 L 77.015625 429.835938 L 73.765625 434.667969 L 76.933594 433.539062 L 80.339844 432.492188 L 83.824219 431.347656 L 87.292969 430.285156 L 91.007812 429.386719 L 94.628906 428.3125 L 98.414062 427.484375 L 102.195312 426.503906 L 105.980469 425.6875 L 109.914062 424.992188 L 113.765625 424.3125 L 117.699219 423.5625 L 121.632812 423.03125 L 125.484375 422.433594 L 129.269531 421.820312 L 133.1875 421.453125 L 136.820312 420.976562 L 140.621094 420.609375 L 144.160156 420.378906 L 147.710938 420.148438 L 151.113281 419.996094 L 160.804688 419.996094 L 163.757812 420.308594 L 166.617188 420.527344 L 169.1875 420.757812 L 171.691406 421.125 L 174.046875 421.601562 L 176.15625 422.203125 L 178.046875 422.734375 L 179.710938 423.480469 L 183.480469 425.605469 L 186.8125 428.09375 L 189.535156 430.816406 L 192.039062 433.988281 L 194 437.324219 L 195.578125 440.957031 L 196.953125 444.890625 L 197.933594 448.890625 L 198.765625 453.125 L 199.363281 457.574219 L 199.675781 462.136719 L 199.90625 466.734375 L 200.058594 471.351562 L 200.058594 485.421875 L 203.378906 481.109375 L 206.917969 477.011719 L 210.699219 472.929688 L 214.730469 468.925781 L 218.8125 465.144531 L 222.964844 461.507812 L 227.347656 458.203125 L 231.730469 455.003906 L 236.113281 452.144531 L 240.441406 449.722656 L 244.742188 447.613281 L 248.972656 445.9375 L 253.136719 444.578125 L 256.992188 443.828125 L 260.773438 443.433594 L 264.328125 443.679688 L 267.046875 444.359375 L 269.769531 445.40625 L 272.355469 447.070312 L 274.984375 448.960938 L 277.570312 451.464844 L 280.140625 454.171875 L 282.78125 457.277344 L 285.355469 460.53125 L 287.847656 464.246094 L 290.417969 468.097656 L 293.058594 472.25 L 295.644531 476.628906 L 298.203125 481.109375 L 300.84375 485.722656 L 303.578125 490.472656 L 306.300781 495.332031 " fill-opacity="1" fill-rule="nonzero"/><g clip-path="url(#6fe6f430cf)"><path stroke-linecap="butt" transform="matrix(0.348432, 0, 0, -0.348432, -4.878048, 516.305614)" fill="none" stroke-linejoin="miter" d="M 893.083206 60.19418 L 900.863597 74.140586 L 907.814378 87.773085 L 914.810002 101.013202 L 921.48051 113.872147 L 928.005275 126.450818 L 934.059181 138.356833 L 940.157931 149.410817 L 946.24547 160.083629 L 952.10879 169.411129 L 958.20754 178.323824 L 964.261446 186.093003 L 970.786211 193.279214 L 977.501562 198.716519 L 984.216914 203.481167 L 991.403124 206.485698 L 999.217147 208.436401 L 1009.4191 209.14269 L 1020.271287 208.010385 L 1031.325271 205.857885 L 1043.27613 201.956479 L 1055.428786 197.146987 L 1067.581442 191.093081 L 1080.193746 184.1423 L 1092.772417 175.935894 L 1105.351089 166.754137 L 1117.92976 157.269684 L 1129.645189 146.832302 L 1141.562415 135.980115 L 1153.042415 124.488904 L 1163.905813 112.773475 L 1174.096555 101.013202 L 1183.670695 88.636327 L 1183.670695 129.018123 L 1183.939758 142.26945 L 1184.533937 155.464723 L 1185.666242 168.559098 L 1187.381515 181.328355 L 1189.769445 193.481011 L 1192.34796 204.96101 L 1196.518429 216.250424 L 1200.823429 226.676596 L 1206.720382 236.250736 L 1213.828116 245.354017 L 1221.675772 253.16804 L 1231.216279 260.309407 L 1242.068466 266.408157 L 1246.597685 268.549446 L 1252.068622 270.074133 L 1258.357958 271.800617 L 1265.073309 273.168352 L 1272.225887 274.22218 L 1279.647527 274.883625 L 1287.618504 275.511437 L 1296.329402 276.408312 L 1324.098893 276.408312 L 1333.863619 275.971086 L 1344.099205 275.309641 L 1354.301157 274.648195 L 1365.153344 273.594367 L 1375.971899 272.226633 L 1386.835297 271.172805 L 1397.698695 269.412688 L 1408.752679 267.697414 L 1420.042092 266.172727 L 1431.096076 264.020227 L 1442.38549 262.069524 L 1453.674903 260.073977 L 1464.527091 257.730891 L 1475.390489 254.916946 L 1486.209043 252.540227 L 1496.635214 249.45722 L 1507.072597 246.878704 L 1517.263339 243.829329 L 1527.263494 240.544525 L 1537.028221 237.539994 L 1546.131501 234.300033 L 1536.602205 248.167962 L 1528.126737 261.441711 L 1520.077284 273.594367 L 1512.891073 285.074367 L 1506.209355 295.937765 L 1500.155449 306.565733 L 1494.258496 316.330459 L 1489.258418 326.095186 L 1484.493769 335.669326 L 1480.390567 344.727763 L 1476.253731 354.301903 L 1473.002559 363.8312 L 1469.919551 373.595926 L 1466.67959 383.831511 L 1464.527091 394.22405 L 1462.150372 405.502253 L 1459.762442 419.415026 L 1459.067364 433.316588 L 1459.762442 447.184517 L 1461.28713 460.895493 L 1464.728887 473.911391 L 1468.910567 486.916078 L 1474.291817 499.730179 L 1480.782949 511.636194 L 1487.73373 523.55342 L 1495.547753 534.450451 L 1504.449237 544.450607 L 1514.023378 553.946271 L 1523.788104 562.847755 L 1534.214275 570.706621 L 1544.842244 577.421973 L 1555.896228 583.285293 L 1566.524196 587.848144 L 1576.759782 591.951347 L 1587.15232 595.628535 L 1598.004507 599.574784 L 1608.632476 602.579316 L 1619.495874 605.62869 L 1629.922045 608.240839 L 1640.785443 611.054784 L 1651.603997 613.442714 L 1662.456185 616.054862 L 1673.319583 618.397948 L 1684.182981 620.81951 L 1695.001535 623.20744 L 1705.864933 625.819588 L 1716.291104 628.667166 L 1727.143291 631.682908 L 1716.291104 634.721072 L 1705.864933 637.579861 L 1695.001535 640.158377 L 1684.182981 642.535095 L 1662.456185 647.299743 L 1651.603997 649.878259 L 1640.785443 652.299821 L 1629.922045 655.113767 L 1619.495874 657.692282 L 1608.632476 660.786501 L 1598.004507 663.791032 L 1587.15232 667.692438 L 1576.759782 671.403258 L 1566.524196 675.506461 L 1555.896228 680.114156 L 1544.842244 685.932633 L 1534.214275 692.692828 L 1523.788104 700.473218 L 1514.023378 709.374702 L 1504.449237 718.903999 L 1495.547753 728.904154 L 1487.73373 739.767552 L 1480.782949 751.684779 L 1474.291817 763.635637 L 1468.910567 776.449739 L 1464.728887 789.454426 L 1461.28713 802.694542 L 1459.762442 816.136456 L 1459.067364 830.082861 L 1459.762442 843.950791 L 1462.150372 857.807509 L 1464.527091 869.096922 L 1466.67959 879.567938 L 1469.919551 889.725047 L 1473.002559 899.489773 L 1476.253731 909.019069 L 1480.390567 918.59321 L 1484.493769 927.696491 L 1489.258418 937.270631 L 1494.258496 947.035357 L 1500.155449 956.800083 L 1506.209355 967.416841 L 1512.891073 978.280239 L 1520.077284 989.805082 L 1528.126737 1001.957738 L 1536.602205 1015.153011 L 1546.131501 1029.099416 L 1537.028221 1025.780979 L 1527.263494 1022.776448 L 1517.263339 1019.727073 L 1507.072597 1016.442268 L 1496.635214 1013.863753 L 1486.209043 1010.859222 L 1475.390489 1008.471292 L 1464.527091 1005.623714 L 1453.674903 1003.437581 L 1442.38549 1001.285081 L 1431.096076 999.334378 L 1420.042092 997.193089 L 1408.752679 995.623558 L 1397.698695 993.908285 L 1386.835297 992.148168 L 1375.971899 991.09434 L 1365.153344 989.805082 L 1354.301157 988.70641 L 1344.099205 988.044965 L 1333.863619 987.417152 L 1324.098893 987.192934 L 1296.329402 987.192934 L 1287.618504 987.854379 L 1279.647527 988.47098 L 1272.225887 989.143637 L 1265.073309 990.231097 L 1258.357958 991.520355 L 1252.068622 993.24684 L 1246.597685 994.760316 L 1242.068466 996.95766 L 1231.216279 1003.011566 L 1221.675772 1010.197776 L 1213.828116 1018.0118 L 1206.720382 1027.148713 L 1200.823429 1036.644377 L 1196.518429 1047.070548 L 1192.34796 1058.393595 L 1189.769445 1070.120235 L 1187.381515 1082.02625 L 1185.666242 1094.840351 L 1184.533937 1107.856249 L 1183.939758 1121.096366 L 1183.670695 1134.336483 L 1183.670695 1174.729489 L 1174.096555 1162.307771 L 1163.905813 1150.58113 L 1153.042415 1139.101131 L 1141.562415 1127.385702 L 1129.645189 1116.522304 L 1117.92976 1106.129765 L 1105.351089 1096.566836 L 1092.772417 1087.463555 L 1080.193746 1079.414102 L 1067.581442 1072.261524 L 1055.428786 1066.173985 L 1043.27613 1061.409337 L 1031.325271 1057.698517 L 1020.271287 1055.310587 L 1009.4191 1054.256759 L 999.217147 1054.884572 L 991.403124 1056.173829 L 983.790898 1057.967579 L 976.87375 1059.918282 L 969.687539 1062.261368 L 962.927344 1065.310743 L 956.010196 1068.752501 L 949.294845 1072.93418 L 942.53465 1077.889414 L 935.864142 1083.752735 L 928.868517 1090.232656 L 922.186799 1097.654296 L 915.426604 1106.566991 L 908.285237 1115.894491 L 901.099026 1126.724256 L 893.744652 1138.675115 L 885.896996 1151.915232 L 878.082972 1138.675115 L 870.739809 1126.724256 L 863.553598 1115.894491 L 856.40102 1106.566991 L 849.685669 1097.654296 L 842.734888 1090.232656 L 835.974693 1083.752735 L 829.292974 1077.889414 L 822.54399 1072.93418 L 815.581998 1068.752501 L 808.866647 1065.310743 L 802.151296 1062.261368 L 794.965085 1059.918282 L 787.812507 1057.967579 L 780.4245 1056.173829 L 772.621687 1054.884572 L 762.419735 1054.256759 L 751.567548 1055.310587 L 740.502353 1057.698517 L 728.551494 1061.409337 L 716.410049 1066.173985 L 704.066807 1072.261524 L 691.645089 1079.414102 L 679.066418 1087.463555 L 666.487746 1096.566836 L 653.909075 1106.129765 L 641.991849 1116.522304 L 630.276419 1127.385702 L 618.706732 1139.101131 L 607.854545 1150.58113 L 597.697436 1162.307771 L 588.16814 1174.729489 L 588.16814 1134.336483 L 587.730913 1121.096366 L 587.069468 1107.856249 L 586.172593 1094.840351 L 584.45732 1082.02625 L 582.06939 1070.120235 L 579.255445 1058.393595 L 575.309195 1047.070548 L 570.779976 1036.644377 L 565.152086 1027.148713 L 557.965875 1018.0118 L 550.151852 1010.197776 L 540.588923 1003.011566 L 529.770369 996.95766 L 524.994509 994.760316 L 519.568416 993.24684 L 513.51451 991.520355 L 506.754315 990.231097 L 499.568104 989.143637 L 492.191308 988.47098 L 483.984902 987.854379 L 475.509433 987.192934 L 447.695098 987.192934 L 437.930372 987.417152 L 427.73963 988.044965 L 417.582521 988.70641 L 406.67428 989.805082 L 396.248108 991.09434 L 385.003538 992.148168 L 374.14014 993.908285 L 363.086156 995.623558 L 351.796743 997.193089 L 340.507329 999.334378 L 329.453345 1001.285081 L 318.163931 1003.437581 L 307.300533 1005.623714 L 296.448346 1008.471292 L 285.584948 1010.859222 L 275.19241 1013.863753 L 264.530809 1016.442268 L 254.575496 1019.727073 L 244.575341 1022.776448 L 234.799403 1025.780979 L 225.707333 1029.099416 L 235.034833 1015.153011 L 243.712098 1001.957738 L 251.761551 989.805082 L 258.869285 978.280239 L 265.62948 967.416841 L 271.683386 956.800083 L 277.580339 947.035357 L 282.580417 937.270631 L 287.345065 927.696491 L 291.481901 918.59321 L 295.585104 909.019069 L 298.825065 899.489773 L 301.919284 889.725047 L 304.923815 879.567938 L 307.300533 869.096922 L 309.688463 857.807509 L 312.110025 843.950791 L 312.692994 830.082861 L 312.110025 816.136456 L 310.316276 802.694542 L 307.065104 789.454426 L 302.928268 776.449739 L 297.535807 763.635637 L 291.481901 751.684779 L 283.869675 739.767552 L 276.246238 728.904154 L 267.344754 718.903999 L 257.815457 709.374702 L 248.050731 700.473218 L 237.377919 692.692828 L 226.996591 685.932633 L 215.707178 680.114156 L 205.269795 675.506461 L 195.079053 671.403258 L 184.652882 667.692438 L 173.823117 663.791032 L 163.161516 660.786501 L 152.342961 657.692282 L 141.91679 655.113767 L 131.053392 652.299821 L 120.189994 649.878259 L 109.371439 647.299743 L 76.792456 640.158377 L 65.940269 637.579861 L 55.312301 634.721072 L 44.448903 631.682908 L 55.312301 628.667166 L 65.940269 625.819588 L 76.792456 623.20744 L 87.655854 620.81951 L 98.519252 618.397948 L 109.371439 616.054862 L 120.189994 613.442714 L 131.053392 611.054784 L 141.91679 608.240839 L 152.342961 605.62869 L 163.161516 602.579316 L 173.823117 599.574784 L 184.652882 595.628535 L 195.079053 591.951347 L 205.269795 587.848144 L 215.707178 583.285293 L 226.996591 577.421973 L 237.377919 570.706621 L 248.050731 562.847755 L 257.815457 553.946271 L 267.344754 544.450607 L 276.246238 534.450451 L 283.869675 523.55342 L 291.481901 511.636194 L 297.535807 499.730179 L 302.928268 486.916078 L 307.065104 473.911391 L 310.316276 460.895493 L 312.110025 447.184517 L 312.692994 433.316588 L 312.110025 419.415026 L 309.688463 405.502253 L 307.300533 394.22405 L 304.923815 383.831511 L 301.919284 373.595926 L 298.825065 363.8312 L 295.585104 354.301903 L 291.481901 344.727763 L 287.345065 335.669326 L 282.580417 326.095186 L 277.580339 316.330459 L 271.683386 306.565733 L 265.62948 295.937765 L 258.869285 285.074367 L 251.761551 273.594367 L 243.712098 261.441711 L 235.034833 248.167962 L 225.707333 234.300033 L 234.799403 237.539994 L 244.575341 240.544525 L 254.575496 243.829329 L 264.530809 246.878704 L 275.19241 249.45722 L 285.584948 252.540227 L 296.448346 254.916946 L 307.300533 257.730891 L 318.163931 260.073977 L 329.453345 262.069524 L 340.507329 264.020227 L 351.796743 266.172727 L 363.086156 267.697414 L 374.14014 269.412688 L 385.003538 271.172805 L 396.248108 272.226633 L 406.67428 273.594367 L 417.582521 274.648195 L 427.73963 275.309641 L 437.930372 275.971086 L 447.695098 276.408312 L 475.509433 276.408312 L 483.984902 275.511437 L 492.191308 274.883625 L 499.568104 274.22218 L 506.754315 273.168352 L 513.51451 271.800617 L 519.568416 270.074133 L 524.994509 268.549446 L 529.770369 266.408157 L 540.588923 260.309407 L 550.151852 253.16804 L 557.965875 245.354017 L 565.152086 236.250736 L 570.779976 226.676596 L 575.309195 216.250424 L 579.255445 204.96101 L 582.06939 193.481011 L 584.45732 181.328355 L 586.172593 168.559098 L 587.069468 155.464723 L 587.730913 142.26945 L 588.16814 129.018123 L 588.16814 88.636327 L 597.697436 101.013202 L 607.854545 112.773475 L 618.706732 124.488904 L 630.276419 135.980115 L 641.991849 146.832302 L 653.909075 157.269684 L 666.487746 166.754137 L 679.066418 175.935894 L 691.645089 184.1423 L 704.066807 191.093081 L 716.410049 197.146987 L 728.551494 201.956479 L 740.502353 205.857885 L 751.567548 208.010385 L 762.419735 209.14269 L 772.621687 208.436401 L 780.4245 206.485698 L 788.238523 203.481167 L 795.660163 198.716519 L 803.205124 193.279214 L 810.626764 186.093003 L 818.003561 178.323824 L 825.582154 169.411129 L 832.970162 160.083629 L 840.12274 149.410817 L 847.499536 138.356833 L 855.07813 126.450818 L 862.49977 113.872147 L 869.842934 101.013202 L 877.421527 87.773085 L 885.269183 74.140586 Z M 893.083206 60.19418 " stroke="#363639" stroke-width="4.99" stroke-opacity="1" stroke-miterlimit="4"/></g><g fill="#000000" fill-opacity="1"><g transform="translate(216.465161, 269.894084)"><g><path d="M 19 -15.03125 C 19 -14.019531 18.847656 -13.125 18.546875 -12.34375 C 18.242188 -11.5625 17.828125 -10.878906 17.296875 -10.296875 C 16.773438 -9.710938 16.160156 -9.21875 15.453125 -8.8125 C 14.742188 -8.40625 13.984375 -8.070312 13.171875 -7.8125 C 12.367188 -7.5625 11.535156 -7.375 10.671875 -7.25 C 9.804688 -7.132812 8.957031 -7.070312 8.125 -7.0625 L 8.125 0.21875 L 0.84375 0.21875 C 0.84375 -2.164062 0.847656 -4.539062 0.859375 -6.90625 C 0.867188 -9.269531 0.882812 -11.65625 0.90625 -14.0625 C 0.925781 -15.332031 0.929688 -16.601562 0.921875 -17.875 C 0.910156 -19.144531 0.9375 -20.425781 1 -21.71875 C 2.332031 -22.113281 3.664062 -22.410156 5 -22.609375 C 6.332031 -22.804688 7.707031 -22.90625 9.125 -22.90625 C 9.925781 -22.90625 10.726562 -22.835938 11.53125 -22.703125 C 12.332031 -22.578125 13.097656 -22.375 13.828125 -22.09375 C 14.566406 -21.8125 15.25 -21.457031 15.875 -21.03125 C 16.507812 -20.613281 17.054688 -20.113281 17.515625 -19.53125 C 17.972656 -18.945312 18.332031 -18.28125 18.59375 -17.53125 C 18.863281 -16.789062 19 -15.957031 19 -15.03125 Z M 12.0625 -14.5 C 12.0625 -15.175781 11.851562 -15.703125 11.4375 -16.078125 C 11.03125 -16.460938 10.5 -16.65625 9.84375 -16.65625 C 9.625 -16.65625 9.394531 -16.632812 9.15625 -16.59375 C 8.925781 -16.5625 8.707031 -16.519531 8.5 -16.46875 L 8.3125 -11.90625 C 8.457031 -11.882812 8.597656 -11.875 8.734375 -11.875 C 8.867188 -11.875 9.007812 -11.875 9.15625 -11.875 C 9.53125 -11.875 9.890625 -11.9375 10.234375 -12.0625 C 10.585938 -12.1875 10.898438 -12.363281 11.171875 -12.59375 C 11.441406 -12.832031 11.65625 -13.109375 11.8125 -13.421875 C 11.976562 -13.742188 12.0625 -14.101562 12.0625 -14.5 Z M 12.0625 -14.5 "/></g></g></g><g fill="#000000" fill-opacity="1"><g transform="translate(233.867012, 269.894084)"><g><path d="M 20.5 -1.34375 L 12.75 -0.34375 L 11.8125 -3.875 L 8.25 -3.875 L 7.46875 -0.34375 L -0.5 -1.125 L 5.71875 -21.9375 L 14.40625 -22.375 Z M 11.25 -8.65625 L 10.0625 -14.09375 L 8.90625 -8.65625 Z M 11.25 -8.65625 "/></g></g></g><g fill="#000000" fill-opacity="1"><g transform="translate(253.893371, 269.894084)"><g><path d="M 19.109375 -15.0625 C 19.109375 -14.25 19.035156 -13.507812 18.890625 -12.84375 C 18.753906 -12.1875 18.535156 -11.582031 18.234375 -11.03125 C 17.929688 -10.476562 17.539062 -9.96875 17.0625 -9.5 C 16.582031 -9.03125 16.003906 -8.582031 15.328125 -8.15625 L 19.046875 -1.53125 L 12.015625 -0.15625 L 9.609375 -6.8125 L 7.671875 -6.75 L 7.390625 -0.25 L 0.671875 -0.25 C 0.722656 -2.625 0.769531 -4.988281 0.8125 -7.34375 C 0.863281 -9.695312 0.921875 -12.0625 0.984375 -14.4375 C 1.003906 -15.632812 1.023438 -16.820312 1.046875 -18 C 1.066406 -19.175781 1.109375 -20.363281 1.171875 -21.5625 C 1.898438 -21.832031 2.617188 -22.054688 3.328125 -22.234375 C 4.035156 -22.410156 4.742188 -22.546875 5.453125 -22.640625 C 6.171875 -22.742188 6.894531 -22.8125 7.625 -22.84375 C 8.363281 -22.882812 9.117188 -22.90625 9.890625 -22.90625 C 11.078125 -22.90625 12.222656 -22.738281 13.328125 -22.40625 C 14.441406 -22.082031 15.425781 -21.59375 16.28125 -20.9375 C 17.132812 -20.28125 17.816406 -19.460938 18.328125 -18.484375 C 18.847656 -17.503906 19.109375 -16.363281 19.109375 -15.0625 Z M 12.109375 -14.5625 C 12.109375 -15 12.046875 -15.398438 11.921875 -15.765625 C 11.804688 -16.128906 11.628906 -16.441406 11.390625 -16.703125 C 11.160156 -16.972656 10.867188 -17.179688 10.515625 -17.328125 C 10.171875 -17.484375 9.765625 -17.5625 9.296875 -17.5625 C 9.085938 -17.5625 8.882812 -17.546875 8.6875 -17.515625 C 8.488281 -17.492188 8.296875 -17.457031 8.109375 -17.40625 L 7.859375 -11.59375 L 8.234375 -11.59375 C 8.679688 -11.59375 9.132812 -11.648438 9.59375 -11.765625 C 10.0625 -11.878906 10.476562 -12.054688 10.84375 -12.296875 C 11.21875 -12.535156 11.519531 -12.84375 11.75 -13.21875 C 11.988281 -13.59375 12.109375 -14.039062 12.109375 -14.5625 Z M 12.109375 -14.5625 "/></g></g></g><g fill="#000000" fill-opacity="1"><g transform="translate(273.279261, 269.894084)"><g><path d="M 20.5 -1.34375 L 12.75 -0.34375 L 11.8125 -3.875 L 8.25 -3.875 L 7.46875 -0.34375 L -0.5 -1.125 L 5.71875 -21.9375 L 14.40625 -22.375 Z M 11.25 -8.65625 L 10.0625 -14.09375 L 8.90625 -8.65625 Z M 11.25 -8.65625 "/></g></g></g><g fill="#000000" fill-opacity="1"><g transform="translate(293.30562, 269.894084)"><g><path d="M 18.984375 -5.5625 C 18.984375 -4.695312 18.820312 -3.953125 18.5 -3.328125 C 18.1875 -2.703125 17.765625 -2.171875 17.234375 -1.734375 C 16.703125 -1.296875 16.085938 -0.9375 15.390625 -0.65625 C 14.703125 -0.382812 13.984375 -0.171875 13.234375 -0.015625 C 12.484375 0.140625 11.726562 0.242188 10.96875 0.296875 C 10.21875 0.347656 9.515625 0.375 8.859375 0.375 C 8.210938 0.375 7.539062 0.347656 6.84375 0.296875 C 6.15625 0.253906 5.46875 0.175781 4.78125 0.0625 C 4.09375 -0.0507812 3.414062 -0.203125 2.75 -0.390625 C 2.082031 -0.585938 1.453125 -0.832031 0.859375 -1.125 L 0.828125 -21.25 C 1.410156 -21.488281 2.03125 -21.703125 2.6875 -21.890625 C 3.34375 -22.085938 4.007812 -22.25 4.6875 -22.375 C 5.375 -22.507812 6.054688 -22.609375 6.734375 -22.671875 C 7.410156 -22.742188 8.066406 -22.78125 8.703125 -22.78125 C 9.441406 -22.78125 10.1875 -22.734375 10.9375 -22.640625 C 11.695312 -22.546875 12.425781 -22.390625 13.125 -22.171875 C 13.820312 -21.953125 14.472656 -21.664062 15.078125 -21.3125 C 15.679688 -20.96875 16.207031 -20.539062 16.65625 -20.03125 C 17.113281 -19.519531 17.46875 -18.925781 17.71875 -18.25 C 17.976562 -17.570312 18.109375 -16.789062 18.109375 -15.90625 C 18.109375 -15.320312 18.023438 -14.773438 17.859375 -14.265625 C 17.691406 -13.753906 17.453125 -13.296875 17.140625 -12.890625 C 16.828125 -12.484375 16.445312 -12.132812 16 -11.84375 C 15.550781 -11.5625 15.046875 -11.351562 14.484375 -11.21875 C 15.160156 -11.039062 15.773438 -10.78125 16.328125 -10.4375 C 16.890625 -10.09375 17.363281 -9.675781 17.75 -9.1875 C 18.144531 -8.695312 18.445312 -8.144531 18.65625 -7.53125 C 18.875 -6.914062 18.984375 -6.257812 18.984375 -5.5625 Z M 11.046875 -14.46875 C 11.046875 -14.769531 10.984375 -15.023438 10.859375 -15.234375 C 10.734375 -15.453125 10.578125 -15.628906 10.390625 -15.765625 C 10.210938 -15.898438 10.015625 -16 9.796875 -16.0625 C 9.585938 -16.125 9.398438 -16.15625 9.234375 -16.15625 C 9.023438 -16.15625 8.820312 -16.125 8.625 -16.0625 C 8.425781 -16 8.234375 -15.925781 8.046875 -15.84375 L 7.953125 -12.375 C 8.191406 -12.375 8.488281 -12.394531 8.84375 -12.4375 C 9.195312 -12.476562 9.535156 -12.566406 9.859375 -12.703125 C 10.191406 -12.847656 10.472656 -13.054688 10.703125 -13.328125 C 10.929688 -13.609375 11.046875 -13.988281 11.046875 -14.46875 Z M 8.828125 -9.375 C 8.523438 -9.375 8.234375 -9.34375 7.953125 -9.28125 L 7.890625 -5.71875 C 8.046875 -5.6875 8.195312 -5.65625 8.34375 -5.625 C 8.5 -5.601562 8.648438 -5.59375 8.796875 -5.59375 C 9.015625 -5.59375 9.253906 -5.613281 9.515625 -5.65625 C 9.773438 -5.707031 10.019531 -5.800781 10.25 -5.9375 C 10.476562 -6.082031 10.664062 -6.273438 10.8125 -6.515625 C 10.96875 -6.753906 11.046875 -7.070312 11.046875 -7.46875 C 11.046875 -7.863281 10.96875 -8.1875 10.8125 -8.4375 C 10.664062 -8.6875 10.484375 -8.878906 10.265625 -9.015625 C 10.046875 -9.160156 9.804688 -9.253906 9.546875 -9.296875 C 9.285156 -9.347656 9.046875 -9.375 8.828125 -9.375 Z M 8.828125 -9.375 "/></g></g></g><g fill="#000000" fill-opacity="1"><g transform="translate(312.019776, 269.894084)"><g><path d="M 18.234375 -12.625 C 18.234375 -11.71875 18.171875 -10.8125 18.046875 -9.90625 C 16.265625 -9.789062 14.492188 -9.601562 12.734375 -9.34375 C 10.972656 -9.09375 9.210938 -8.84375 7.453125 -8.59375 C 7.722656 -7.84375 8.144531 -7.242188 8.71875 -6.796875 C 9.300781 -6.347656 9.992188 -6.125 10.796875 -6.125 C 11.210938 -6.125 11.664062 -6.203125 12.15625 -6.359375 C 12.65625 -6.515625 13.148438 -6.707031 13.640625 -6.9375 C 14.128906 -7.175781 14.597656 -7.429688 15.046875 -7.703125 C 15.492188 -7.972656 15.878906 -8.21875 16.203125 -8.4375 L 15.453125 -1.34375 C 15.046875 -1.03125 14.601562 -0.765625 14.125 -0.546875 C 13.65625 -0.328125 13.164062 -0.148438 12.65625 -0.015625 C 12.144531 0.117188 11.628906 0.21875 11.109375 0.28125 C 10.585938 0.34375 10.078125 0.375 9.578125 0.375 C 8.546875 0.375 7.601562 0.234375 6.75 -0.046875 C 5.894531 -0.328125 5.117188 -0.71875 4.421875 -1.21875 C 3.734375 -1.726562 3.128906 -2.328125 2.609375 -3.015625 C 2.085938 -3.703125 1.65625 -4.453125 1.3125 -5.265625 C 0.96875 -6.078125 0.707031 -6.9375 0.53125 -7.84375 C 0.351562 -8.75 0.265625 -9.664062 0.265625 -10.59375 C 0.265625 -11.5625 0.351562 -12.53125 0.53125 -13.5 C 0.707031 -14.46875 0.972656 -15.398438 1.328125 -16.296875 C 1.691406 -17.191406 2.144531 -18.019531 2.6875 -18.78125 C 3.238281 -19.550781 3.878906 -20.222656 4.609375 -20.796875 C 5.335938 -21.367188 6.160156 -21.816406 7.078125 -22.140625 C 8.003906 -22.460938 9.023438 -22.625 10.140625 -22.625 C 11.066406 -22.625 11.910156 -22.492188 12.671875 -22.234375 C 13.441406 -21.984375 14.125 -21.628906 14.71875 -21.171875 C 15.320312 -20.722656 15.84375 -20.1875 16.28125 -19.5625 C 16.726562 -18.9375 17.09375 -18.25 17.375 -17.5 C 17.664062 -16.757812 17.878906 -15.972656 18.015625 -15.140625 C 18.160156 -14.316406 18.234375 -13.476562 18.234375 -12.625 Z M 11.984375 -13.4375 C 11.984375 -13.726562 11.953125 -14.023438 11.890625 -14.328125 C 11.828125 -14.640625 11.722656 -14.921875 11.578125 -15.171875 C 11.441406 -15.421875 11.257812 -15.625 11.03125 -15.78125 C 10.800781 -15.945312 10.515625 -16.03125 10.171875 -16.03125 C 9.753906 -16.03125 9.382812 -15.914062 9.0625 -15.6875 C 8.75 -15.46875 8.476562 -15.1875 8.25 -14.84375 C 8.019531 -14.507812 7.832031 -14.144531 7.6875 -13.75 C 7.539062 -13.351562 7.429688 -12.988281 7.359375 -12.65625 L 11.984375 -13.09375 Z M 17.609375 -27.53125 C 16.367188 -26.851562 15.160156 -26.164062 13.984375 -25.46875 C 12.804688 -24.78125 11.628906 -24.03125 10.453125 -23.21875 L 8.453125 -25.40625 C 8.660156 -25.65625 8.910156 -25.929688 9.203125 -26.234375 C 9.492188 -26.546875 9.800781 -26.863281 10.125 -27.1875 C 10.457031 -27.507812 10.800781 -27.832031 11.15625 -28.15625 C 11.507812 -28.488281 11.851562 -28.804688 12.1875 -29.109375 C 12.976562 -29.828125 13.804688 -30.550781 14.671875 -31.28125 Z M 17.609375 -27.53125 "/></g></g></g><g fill="#000000" fill-opacity="1"><g transform="translate(330.468395, 269.894084)"><g><path d="M 20.1875 -7.90625 C 20.1875 -6.726562 20.171875 -5.5625 20.140625 -4.40625 C 20.117188 -3.257812 20.082031 -2.101562 20.03125 -0.9375 L 11.03125 -1.09375 C 11.34375 -2.9375 11.613281 -4.773438 11.84375 -6.609375 C 12.070312 -8.453125 12.1875 -10.3125 12.1875 -12.1875 C 12.1875 -12.320312 12.179688 -12.539062 12.171875 -12.84375 C 12.160156 -13.144531 12.140625 -13.484375 12.109375 -13.859375 C 12.078125 -14.242188 12.03125 -14.632812 11.96875 -15.03125 C 11.914062 -15.4375 11.835938 -15.804688 11.734375 -16.140625 C 11.640625 -16.472656 11.519531 -16.742188 11.375 -16.953125 C 11.238281 -17.171875 11.070312 -17.28125 10.875 -17.28125 C 10.519531 -17.28125 10.21875 -17.175781 9.96875 -16.96875 C 9.726562 -16.757812 9.523438 -16.488281 9.359375 -16.15625 C 9.203125 -15.832031 9.078125 -15.46875 8.984375 -15.0625 C 8.890625 -14.65625 8.816406 -14.25 8.765625 -13.84375 C 8.722656 -13.4375 8.691406 -13.050781 8.671875 -12.6875 C 8.660156 -12.332031 8.65625 -12.039062 8.65625 -11.8125 C 8.601562 -9.96875 8.5625 -8.132812 8.53125 -6.3125 C 8.5 -4.5 8.457031 -2.664062 8.40625 -0.8125 L 0.4375 -0.46875 C 0.644531 -4.144531 0.84375 -7.800781 1.03125 -11.4375 C 1.226562 -15.070312 1.382812 -18.726562 1.5 -22.40625 L 8.875 -22.78125 L 8.8125 -20.28125 C 9.101562 -20.632812 9.414062 -20.96875 9.75 -21.28125 C 10.09375 -21.59375 10.457031 -21.859375 10.84375 -22.078125 C 11.226562 -22.304688 11.632812 -22.484375 12.0625 -22.609375 C 12.5 -22.742188 12.957031 -22.8125 13.4375 -22.8125 C 14.320312 -22.8125 15.097656 -22.664062 15.765625 -22.375 C 16.429688 -22.082031 17.003906 -21.6875 17.484375 -21.1875 C 17.960938 -20.6875 18.363281 -20.09375 18.6875 -19.40625 C 19.007812 -18.726562 19.269531 -18.003906 19.46875 -17.234375 C 19.664062 -16.460938 19.816406 -15.65625 19.921875 -14.8125 C 20.023438 -13.976562 20.09375 -13.15625 20.125 -12.34375 C 20.164062 -11.53125 20.1875 -10.742188 20.1875 -9.984375 C 20.1875 -9.222656 20.1875 -8.53125 20.1875 -7.90625 Z M 20.1875 -7.90625 "/></g></g></g><g fill="#000000" fill-opacity="1"><g transform="translate(351.322677, 269.894084)"><g><path d="M 16.8125 -8 C 16.8125 -6.570312 16.5625 -5.335938 16.0625 -4.296875 C 15.570312 -3.265625 14.894531 -2.410156 14.03125 -1.734375 C 13.175781 -1.066406 12.171875 -0.570312 11.015625 -0.25 C 9.867188 0.0625 8.632812 0.21875 7.3125 0.21875 C 6.800781 0.21875 6.238281 0.148438 5.625 0.015625 C 5.019531 -0.117188 4.40625 -0.285156 3.78125 -0.484375 C 3.15625 -0.691406 2.550781 -0.910156 1.96875 -1.140625 C 1.394531 -1.378906 0.882812 -1.601562 0.4375 -1.8125 L 1.125 -7.9375 C 2.007812 -7.40625 2.988281 -7 4.0625 -6.71875 C 5.144531 -6.445312 6.207031 -6.3125 7.25 -6.3125 C 7.445312 -6.3125 7.6875 -6.316406 7.96875 -6.328125 C 8.25 -6.347656 8.515625 -6.394531 8.765625 -6.46875 C 9.023438 -6.550781 9.242188 -6.671875 9.421875 -6.828125 C 9.597656 -6.984375 9.6875 -7.207031 9.6875 -7.5 C 9.6875 -7.695312 9.625 -7.863281 9.5 -8 C 9.375 -8.144531 9.210938 -8.257812 9.015625 -8.34375 C 8.816406 -8.4375 8.59375 -8.503906 8.34375 -8.546875 C 8.09375 -8.597656 7.847656 -8.632812 7.609375 -8.65625 C 7.367188 -8.675781 7.144531 -8.6875 6.9375 -8.6875 C 6.726562 -8.6875 6.5625 -8.6875 6.4375 -8.6875 C 5.539062 -8.6875 4.722656 -8.828125 3.984375 -9.109375 C 3.253906 -9.390625 2.625 -9.785156 2.09375 -10.296875 C 1.570312 -10.816406 1.164062 -11.441406 0.875 -12.171875 C 0.582031 -12.910156 0.4375 -13.726562 0.4375 -14.625 C 0.4375 -15.851562 0.679688 -16.953125 1.171875 -17.921875 C 1.671875 -18.898438 2.332031 -19.726562 3.15625 -20.40625 C 3.988281 -21.09375 4.941406 -21.617188 6.015625 -21.984375 C 7.085938 -22.347656 8.195312 -22.53125 9.34375 -22.53125 C 9.851562 -22.53125 10.378906 -22.507812 10.921875 -22.46875 C 11.460938 -22.4375 12 -22.375 12.53125 -22.28125 C 13.070312 -22.1875 13.597656 -22.066406 14.109375 -21.921875 C 14.617188 -21.773438 15.101562 -21.59375 15.5625 -21.375 L 14.96875 -15.03125 C 14.257812 -15.269531 13.515625 -15.46875 12.734375 -15.625 C 11.960938 -15.789062 11.207031 -15.875 10.46875 -15.875 C 10.332031 -15.875 10.15625 -15.867188 9.9375 -15.859375 C 9.726562 -15.859375 9.503906 -15.84375 9.265625 -15.8125 C 9.035156 -15.789062 8.800781 -15.753906 8.5625 -15.703125 C 8.320312 -15.648438 8.109375 -15.578125 7.921875 -15.484375 C 7.734375 -15.398438 7.582031 -15.285156 7.46875 -15.140625 C 7.351562 -14.992188 7.300781 -14.820312 7.3125 -14.625 C 7.320312 -14.394531 7.40625 -14.21875 7.5625 -14.09375 C 7.726562 -13.96875 7.9375 -13.875 8.1875 -13.8125 C 8.445312 -13.757812 8.726562 -13.734375 9.03125 -13.734375 C 9.34375 -13.734375 9.648438 -13.738281 9.953125 -13.75 C 10.253906 -13.769531 10.535156 -13.785156 10.796875 -13.796875 C 11.054688 -13.816406 11.269531 -13.820312 11.4375 -13.8125 C 12.269531 -13.757812 13.019531 -13.582031 13.6875 -13.28125 C 14.351562 -12.976562 14.914062 -12.578125 15.375 -12.078125 C 15.84375 -11.578125 16.195312 -10.976562 16.4375 -10.28125 C 16.6875 -9.59375 16.8125 -8.832031 16.8125 -8 Z M 16.8125 -8 "/></g></g></g><g fill="#000000" fill-opacity="1"><g transform="translate(368.334147, 269.894084)"><g><path d="M 8.453125 -23.21875 L 7.171875 -6.78125 L 1.390625 -6.78125 L 0.796875 -23.21875 Z M 7.421875 -1.96875 C 7.421875 -1.507812 7.332031 -1.082031 7.15625 -0.6875 C 6.976562 -0.289062 6.738281 0.0507812 6.4375 0.34375 C 6.144531 0.644531 5.800781 0.878906 5.40625 1.046875 C 5.007812 1.222656 4.585938 1.3125 4.140625 1.3125 C 3.679688 1.3125 3.253906 1.222656 2.859375 1.046875 C 2.460938 0.878906 2.113281 0.644531 1.8125 0.34375 C 1.519531 0.0507812 1.285156 -0.289062 1.109375 -0.6875 C 0.941406 -1.082031 0.859375 -1.507812 0.859375 -1.96875 C 0.859375 -2.414062 0.941406 -2.84375 1.109375 -3.25 C 1.285156 -3.65625 1.519531 -4.003906 1.8125 -4.296875 C 2.113281 -4.597656 2.460938 -4.835938 2.859375 -5.015625 C 3.253906 -5.191406 3.679688 -5.28125 4.140625 -5.28125 C 4.585938 -5.28125 5.007812 -5.191406 5.40625 -5.015625 C 5.800781 -4.835938 6.144531 -4.597656 6.4375 -4.296875 C 6.738281 -4.003906 6.976562 -3.65625 7.15625 -3.25 C 7.332031 -2.84375 7.421875 -2.414062 7.421875 -1.96875 Z M 7.421875 -1.96875 "/></g></g></g><g fill="#000000" fill-opacity="1"><g transform="translate(377.269845, 269.894084)"><g/></g></g><g fill="#000000" fill-opacity="1"><g transform="translate(115.367509, 314.144083)"><g><path d="M 19.90625 -21.90625 L 14.1875 -0.15625 L 6.4375 0.28125 L -0.59375 -21.6875 L 6.8125 -22.375 L 9.8125 -9.5625 L 12.71875 -22.375 Z M 19.90625 -21.90625 "/></g></g></g><g fill="#000000" fill-opacity="1"><g transform="translate(134.22221, 314.144083)"><g><path d="M 20.109375 -11.96875 C 20.109375 -11.019531 20 -10.101562 19.78125 -9.21875 C 19.5625 -8.34375 19.242188 -7.519531 18.828125 -6.75 C 18.421875 -5.976562 17.921875 -5.269531 17.328125 -4.625 C 16.742188 -3.988281 16.082031 -3.441406 15.34375 -2.984375 C 14.613281 -2.523438 13.816406 -2.164062 12.953125 -1.90625 C 12.085938 -1.65625 11.171875 -1.53125 10.203125 -1.53125 C 9.265625 -1.53125 8.367188 -1.648438 7.515625 -1.890625 C 6.671875 -2.128906 5.878906 -2.460938 5.140625 -2.890625 C 4.398438 -3.328125 3.726562 -3.847656 3.125 -4.453125 C 2.53125 -5.066406 2.019531 -5.742188 1.59375 -6.484375 C 1.175781 -7.234375 0.847656 -8.035156 0.609375 -8.890625 C 0.378906 -9.742188 0.265625 -10.632812 0.265625 -11.5625 C 0.265625 -12.46875 0.375 -13.351562 0.59375 -14.21875 C 0.8125 -15.09375 1.125 -15.914062 1.53125 -16.6875 C 1.945312 -17.457031 2.445312 -18.164062 3.03125 -18.8125 C 3.613281 -19.457031 4.265625 -20.015625 4.984375 -20.484375 C 5.710938 -20.953125 6.5 -21.316406 7.34375 -21.578125 C 8.1875 -21.835938 9.078125 -21.96875 10.015625 -21.96875 C 11.523438 -21.96875 12.898438 -21.734375 14.140625 -21.265625 C 15.390625 -20.796875 16.453125 -20.125 17.328125 -19.25 C 18.210938 -18.382812 18.894531 -17.332031 19.375 -16.09375 C 19.863281 -14.863281 20.109375 -13.488281 20.109375 -11.96875 Z M 13.171875 -11.5625 C 13.171875 -12.007812 13.101562 -12.441406 12.96875 -12.859375 C 12.84375 -13.285156 12.65625 -13.660156 12.40625 -13.984375 C 12.15625 -14.316406 11.84375 -14.582031 11.46875 -14.78125 C 11.101562 -14.988281 10.679688 -15.09375 10.203125 -15.09375 C 9.710938 -15.09375 9.273438 -15.003906 8.890625 -14.828125 C 8.503906 -14.648438 8.171875 -14.40625 7.890625 -14.09375 C 7.617188 -13.789062 7.410156 -13.429688 7.265625 -13.015625 C 7.117188 -12.609375 7.046875 -12.175781 7.046875 -11.71875 C 7.046875 -11.28125 7.109375 -10.84375 7.234375 -10.40625 C 7.359375 -9.96875 7.546875 -9.570312 7.796875 -9.21875 C 8.046875 -8.863281 8.351562 -8.578125 8.71875 -8.359375 C 9.09375 -8.140625 9.523438 -8.03125 10.015625 -8.03125 C 10.503906 -8.03125 10.941406 -8.125 11.328125 -8.3125 C 11.722656 -8.507812 12.054688 -8.769531 12.328125 -9.09375 C 12.597656 -9.425781 12.804688 -9.804688 12.953125 -10.234375 C 13.097656 -10.660156 13.171875 -11.101562 13.171875 -11.5625 Z M 13.171875 -11.5625 "/></g></g></g><g fill="#000000" fill-opacity="1"><g transform="translate(154.623478, 314.144083)"><g><path d="M 15.703125 -21.34375 L 15.140625 -14.75 C 14.835938 -14.832031 14.539062 -14.890625 14.25 -14.921875 C 13.957031 -14.953125 13.660156 -14.96875 13.359375 -14.96875 C 12.617188 -14.96875 11.910156 -14.875 11.234375 -14.6875 C 10.566406 -14.5 9.972656 -14.210938 9.453125 -13.828125 C 8.941406 -13.441406 8.53125 -12.953125 8.21875 -12.359375 C 7.914062 -11.773438 7.765625 -11.082031 7.765625 -10.28125 C 7.765625 -9.695312 7.847656 -9.1875 8.015625 -8.75 C 8.191406 -8.320312 8.4375 -7.960938 8.75 -7.671875 C 9.070312 -7.390625 9.457031 -7.175781 9.90625 -7.03125 C 10.363281 -6.882812 10.867188 -6.8125 11.421875 -6.8125 C 11.804688 -6.8125 12.203125 -6.847656 12.609375 -6.921875 C 13.015625 -7.003906 13.421875 -7.113281 13.828125 -7.25 C 14.234375 -7.382812 14.625 -7.539062 15 -7.71875 C 15.375 -7.894531 15.722656 -8.082031 16.046875 -8.28125 L 15.796875 -0.9375 C 15.390625 -0.726562 14.953125 -0.539062 14.484375 -0.375 C 14.015625 -0.21875 13.53125 -0.0820312 13.03125 0.03125 C 12.539062 0.15625 12.046875 0.25 11.546875 0.3125 C 11.054688 0.375 10.585938 0.40625 10.140625 0.40625 C 8.660156 0.40625 7.3125 0.128906 6.09375 -0.421875 C 4.882812 -0.972656 3.84375 -1.722656 2.96875 -2.671875 C 2.101562 -3.628906 1.429688 -4.738281 0.953125 -6 C 0.472656 -7.257812 0.234375 -8.601562 0.234375 -10.03125 C 0.234375 -11.738281 0.472656 -13.332031 0.953125 -14.8125 C 1.441406 -16.289062 2.15625 -17.570312 3.09375 -18.65625 C 4.039062 -19.75 5.207031 -20.601562 6.59375 -21.21875 C 7.988281 -21.84375 9.585938 -22.15625 11.390625 -22.15625 C 12.109375 -22.15625 12.835938 -22.097656 13.578125 -21.984375 C 14.316406 -21.867188 15.023438 -21.65625 15.703125 -21.34375 Z M 15.703125 -21.34375 "/></g></g></g><g fill="#000000" fill-opacity="1"><g transform="translate(171.025721, 314.144083)"><g><path d="M 18.234375 -12.625 C 18.234375 -11.71875 18.171875 -10.8125 18.046875 -9.90625 C 16.265625 -9.789062 14.492188 -9.601562 12.734375 -9.34375 C 10.972656 -9.09375 9.210938 -8.84375 7.453125 -8.59375 C 7.722656 -7.84375 8.144531 -7.242188 8.71875 -6.796875 C 9.300781 -6.347656 9.992188 -6.125 10.796875 -6.125 C 11.210938 -6.125 11.664062 -6.203125 12.15625 -6.359375 C 12.65625 -6.515625 13.148438 -6.707031 13.640625 -6.9375 C 14.128906 -7.175781 14.597656 -7.429688 15.046875 -7.703125 C 15.492188 -7.972656 15.878906 -8.21875 16.203125 -8.4375 L 15.453125 -1.34375 C 15.046875 -1.03125 14.601562 -0.765625 14.125 -0.546875 C 13.65625 -0.328125 13.164062 -0.148438 12.65625 -0.015625 C 12.144531 0.117188 11.628906 0.21875 11.109375 0.28125 C 10.585938 0.34375 10.078125 0.375 9.578125 0.375 C 8.546875 0.375 7.601562 0.234375 6.75 -0.046875 C 5.894531 -0.328125 5.117188 -0.71875 4.421875 -1.21875 C 3.734375 -1.726562 3.128906 -2.328125 2.609375 -3.015625 C 2.085938 -3.703125 1.65625 -4.453125 1.3125 -5.265625 C 0.96875 -6.078125 0.707031 -6.9375 0.53125 -7.84375 C 0.351562 -8.75 0.265625 -9.664062 0.265625 -10.59375 C 0.265625 -11.5625 0.351562 -12.53125 0.53125 -13.5 C 0.707031 -14.46875 0.972656 -15.398438 1.328125 -16.296875 C 1.691406 -17.191406 2.144531 -18.019531 2.6875 -18.78125 C 3.238281 -19.550781 3.878906 -20.222656 4.609375 -20.796875 C 5.335938 -21.367188 6.160156 -21.816406 7.078125 -22.140625 C 8.003906 -22.460938 9.023438 -22.625 10.140625 -22.625 C 11.066406 -22.625 11.910156 -22.492188 12.671875 -22.234375 C 13.441406 -21.984375 14.125 -21.628906 14.71875 -21.171875 C 15.320312 -20.722656 15.84375 -20.1875 16.28125 -19.5625 C 16.726562 -18.9375 17.09375 -18.25 17.375 -17.5 C 17.664062 -16.757812 17.878906 -15.972656 18.015625 -15.140625 C 18.160156 -14.316406 18.234375 -13.476562 18.234375 -12.625 Z M 11.984375 -13.4375 C 11.984375 -13.726562 11.953125 -14.023438 11.890625 -14.328125 C 11.828125 -14.640625 11.722656 -14.921875 11.578125 -15.171875 C 11.441406 -15.421875 11.257812 -15.625 11.03125 -15.78125 C 10.800781 -15.945312 10.515625 -16.03125 10.171875 -16.03125 C 9.753906 -16.03125 9.382812 -15.914062 9.0625 -15.6875 C 8.75 -15.46875 8.476562 -15.1875 8.25 -14.84375 C 8.019531 -14.507812 7.832031 -14.144531 7.6875 -13.75 C 7.539062 -13.351562 7.429688 -12.988281 7.359375 -12.65625 L 11.984375 -13.09375 Z M 11.484375 -23 L 9.046875 -26.1875 L 7.140625 -23.15625 L 3.703125 -24.625 C 3.898438 -24.945312 4.144531 -25.320312 4.4375 -25.75 C 4.726562 -26.1875 5.035156 -26.632812 5.359375 -27.09375 C 5.679688 -27.5625 6.007812 -28.023438 6.34375 -28.484375 C 6.675781 -28.953125 6.992188 -29.382812 7.296875 -29.78125 L 10.515625 -29.8125 L 14.796875 -25.03125 Z M 11.484375 -23 "/></g></g></g><g fill="#000000" fill-opacity="1"><g transform="translate(189.47434, 314.144083)"><g/></g></g><g fill="#000000" fill-opacity="1"><g transform="translate(195.722814, 314.144083)"><g><path d="M 20.5 -1.34375 L 12.75 -0.34375 L 11.8125 -3.875 L 8.25 -3.875 L 7.46875 -0.34375 L -0.5 -1.125 L 5.71875 -21.9375 L 14.40625 -22.375 Z M 11.25 -8.65625 L 10.0625 -14.09375 L 8.90625 -8.65625 Z M 11.25 -8.65625 "/></g></g></g><g fill="#000000" fill-opacity="1"><g transform="translate(215.342988, 314.144083)"><g><path d="M 15.703125 -21.34375 L 15.140625 -14.75 C 14.835938 -14.832031 14.539062 -14.890625 14.25 -14.921875 C 13.957031 -14.953125 13.660156 -14.96875 13.359375 -14.96875 C 12.617188 -14.96875 11.910156 -14.875 11.234375 -14.6875 C 10.566406 -14.5 9.972656 -14.210938 9.453125 -13.828125 C 8.941406 -13.441406 8.53125 -12.953125 8.21875 -12.359375 C 7.914062 -11.773438 7.765625 -11.082031 7.765625 -10.28125 C 7.765625 -9.695312 7.847656 -9.1875 8.015625 -8.75 C 8.191406 -8.320312 8.4375 -7.960938 8.75 -7.671875 C 9.070312 -7.390625 9.457031 -7.175781 9.90625 -7.03125 C 10.363281 -6.882812 10.867188 -6.8125 11.421875 -6.8125 C 11.804688 -6.8125 12.203125 -6.847656 12.609375 -6.921875 C 13.015625 -7.003906 13.421875 -7.113281 13.828125 -7.25 C 14.234375 -7.382812 14.625 -7.539062 15 -7.71875 C 15.375 -7.894531 15.722656 -8.082031 16.046875 -8.28125 L 15.796875 -0.9375 C 15.390625 -0.726562 14.953125 -0.539062 14.484375 -0.375 C 14.015625 -0.21875 13.53125 -0.0820312 13.03125 0.03125 C 12.539062 0.15625 12.046875 0.25 11.546875 0.3125 C 11.054688 0.375 10.585938 0.40625 10.140625 0.40625 C 8.660156 0.40625 7.3125 0.128906 6.09375 -0.421875 C 4.882812 -0.972656 3.84375 -1.722656 2.96875 -2.671875 C 2.101562 -3.628906 1.429688 -4.738281 0.953125 -6 C 0.472656 -7.257812 0.234375 -8.601562 0.234375 -10.03125 C 0.234375 -11.738281 0.472656 -13.332031 0.953125 -14.8125 C 1.441406 -16.289062 2.15625 -17.570312 3.09375 -18.65625 C 4.039062 -19.75 5.207031 -20.601562 6.59375 -21.21875 C 7.988281 -21.84375 9.585938 -22.15625 11.390625 -22.15625 C 12.109375 -22.15625 12.835938 -22.097656 13.578125 -21.984375 C 14.316406 -21.867188 15.023438 -21.65625 15.703125 -21.34375 Z M 15.703125 -21.34375 "/></g></g></g><g fill="#000000" fill-opacity="1"><g transform="translate(231.745232, 314.144083)"><g><path d="M 18.234375 -12.625 C 18.234375 -11.71875 18.171875 -10.8125 18.046875 -9.90625 C 16.265625 -9.789062 14.492188 -9.601562 12.734375 -9.34375 C 10.972656 -9.09375 9.210938 -8.84375 7.453125 -8.59375 C 7.722656 -7.84375 8.144531 -7.242188 8.71875 -6.796875 C 9.300781 -6.347656 9.992188 -6.125 10.796875 -6.125 C 11.210938 -6.125 11.664062 -6.203125 12.15625 -6.359375 C 12.65625 -6.515625 13.148438 -6.707031 13.640625 -6.9375 C 14.128906 -7.175781 14.597656 -7.429688 15.046875 -7.703125 C 15.492188 -7.972656 15.878906 -8.21875 16.203125 -8.4375 L 15.453125 -1.34375 C 15.046875 -1.03125 14.601562 -0.765625 14.125 -0.546875 C 13.65625 -0.328125 13.164062 -0.148438 12.65625 -0.015625 C 12.144531 0.117188 11.628906 0.21875 11.109375 0.28125 C 10.585938 0.34375 10.078125 0.375 9.578125 0.375 C 8.546875 0.375 7.601562 0.234375 6.75 -0.046875 C 5.894531 -0.328125 5.117188 -0.71875 4.421875 -1.21875 C 3.734375 -1.726562 3.128906 -2.328125 2.609375 -3.015625 C 2.085938 -3.703125 1.65625 -4.453125 1.3125 -5.265625 C 0.96875 -6.078125 0.707031 -6.9375 0.53125 -7.84375 C 0.351562 -8.75 0.265625 -9.664062 0.265625 -10.59375 C 0.265625 -11.5625 0.351562 -12.53125 0.53125 -13.5 C 0.707031 -14.46875 0.972656 -15.398438 1.328125 -16.296875 C 1.691406 -17.191406 2.144531 -18.019531 2.6875 -18.78125 C 3.238281 -19.550781 3.878906 -20.222656 4.609375 -20.796875 C 5.335938 -21.367188 6.160156 -21.816406 7.078125 -22.140625 C 8.003906 -22.460938 9.023438 -22.625 10.140625 -22.625 C 11.066406 -22.625 11.910156 -22.492188 12.671875 -22.234375 C 13.441406 -21.984375 14.125 -21.628906 14.71875 -21.171875 C 15.320312 -20.722656 15.84375 -20.1875 16.28125 -19.5625 C 16.726562 -18.9375 17.09375 -18.25 17.375 -17.5 C 17.664062 -16.757812 17.878906 -15.972656 18.015625 -15.140625 C 18.160156 -14.316406 18.234375 -13.476562 18.234375 -12.625 Z M 11.984375 -13.4375 C 11.984375 -13.726562 11.953125 -14.023438 11.890625 -14.328125 C 11.828125 -14.640625 11.722656 -14.921875 11.578125 -15.171875 C 11.441406 -15.421875 11.257812 -15.625 11.03125 -15.78125 C 10.800781 -15.945312 10.515625 -16.03125 10.171875 -16.03125 C 9.753906 -16.03125 9.382812 -15.914062 9.0625 -15.6875 C 8.75 -15.46875 8.476562 -15.1875 8.25 -14.84375 C 8.019531 -14.507812 7.832031 -14.144531 7.6875 -13.75 C 7.539062 -13.351562 7.429688 -12.988281 7.359375 -12.65625 L 11.984375 -13.09375 Z M 11.984375 -13.4375 "/></g></g></g><g fill="#000000" fill-opacity="1"><g transform="translate(250.193851, 314.144083)"><g><path d="M 19.109375 -15.0625 C 19.109375 -14.25 19.035156 -13.507812 18.890625 -12.84375 C 18.753906 -12.1875 18.535156 -11.582031 18.234375 -11.03125 C 17.929688 -10.476562 17.539062 -9.96875 17.0625 -9.5 C 16.582031 -9.03125 16.003906 -8.582031 15.328125 -8.15625 L 19.046875 -1.53125 L 12.015625 -0.15625 L 9.609375 -6.8125 L 7.671875 -6.75 L 7.390625 -0.25 L 0.671875 -0.25 C 0.722656 -2.625 0.769531 -4.988281 0.8125 -7.34375 C 0.863281 -9.695312 0.921875 -12.0625 0.984375 -14.4375 C 1.003906 -15.632812 1.023438 -16.820312 1.046875 -18 C 1.066406 -19.175781 1.109375 -20.363281 1.171875 -21.5625 C 1.898438 -21.832031 2.617188 -22.054688 3.328125 -22.234375 C 4.035156 -22.410156 4.742188 -22.546875 5.453125 -22.640625 C 6.171875 -22.742188 6.894531 -22.8125 7.625 -22.84375 C 8.363281 -22.882812 9.117188 -22.90625 9.890625 -22.90625 C 11.078125 -22.90625 12.222656 -22.738281 13.328125 -22.40625 C 14.441406 -22.082031 15.425781 -21.59375 16.28125 -20.9375 C 17.132812 -20.28125 17.816406 -19.460938 18.328125 -18.484375 C 18.847656 -17.503906 19.109375 -16.363281 19.109375 -15.0625 Z M 12.109375 -14.5625 C 12.109375 -15 12.046875 -15.398438 11.921875 -15.765625 C 11.804688 -16.128906 11.628906 -16.441406 11.390625 -16.703125 C 11.160156 -16.972656 10.867188 -17.179688 10.515625 -17.328125 C 10.171875 -17.484375 9.765625 -17.5625 9.296875 -17.5625 C 9.085938 -17.5625 8.882812 -17.546875 8.6875 -17.515625 C 8.488281 -17.492188 8.296875 -17.457031 8.109375 -17.40625 L 7.859375 -11.59375 L 8.234375 -11.59375 C 8.679688 -11.59375 9.132812 -11.648438 9.59375 -11.765625 C 10.0625 -11.878906 10.476562 -12.054688 10.84375 -12.296875 C 11.21875 -12.535156 11.519531 -12.84375 11.75 -13.21875 C 11.988281 -13.59375 12.109375 -14.039062 12.109375 -14.5625 Z M 12.109375 -14.5625 "/></g></g></g><g fill="#000000" fill-opacity="1"><g transform="translate(269.579741, 314.144083)"><g><path d="M 17.34375 -22.03125 L 17.1875 -15.40625 L 12.53125 -15.21875 L 11.96875 -0.71875 L 5.375 -0.375 L 4.78125 -14.875 L 0.125 -14.625 L 0.3125 -22 Z M 17.34375 -22.03125 "/></g></g></g><g fill="#000000" fill-opacity="1"><g transform="translate(286.716158, 314.144083)"><g><path d="M 20.109375 -11.96875 C 20.109375 -11.019531 20 -10.101562 19.78125 -9.21875 C 19.5625 -8.34375 19.242188 -7.519531 18.828125 -6.75 C 18.421875 -5.976562 17.921875 -5.269531 17.328125 -4.625 C 16.742188 -3.988281 16.082031 -3.441406 15.34375 -2.984375 C 14.613281 -2.523438 13.816406 -2.164062 12.953125 -1.90625 C 12.085938 -1.65625 11.171875 -1.53125 10.203125 -1.53125 C 9.265625 -1.53125 8.367188 -1.648438 7.515625 -1.890625 C 6.671875 -2.128906 5.878906 -2.460938 5.140625 -2.890625 C 4.398438 -3.328125 3.726562 -3.847656 3.125 -4.453125 C 2.53125 -5.066406 2.019531 -5.742188 1.59375 -6.484375 C 1.175781 -7.234375 0.847656 -8.035156 0.609375 -8.890625 C 0.378906 -9.742188 0.265625 -10.632812 0.265625 -11.5625 C 0.265625 -12.46875 0.375 -13.351562 0.59375 -14.21875 C 0.8125 -15.09375 1.125 -15.914062 1.53125 -16.6875 C 1.945312 -17.457031 2.445312 -18.164062 3.03125 -18.8125 C 3.613281 -19.457031 4.265625 -20.015625 4.984375 -20.484375 C 5.710938 -20.953125 6.5 -21.316406 7.34375 -21.578125 C 8.1875 -21.835938 9.078125 -21.96875 10.015625 -21.96875 C 11.523438 -21.96875 12.898438 -21.734375 14.140625 -21.265625 C 15.390625 -20.796875 16.453125 -20.125 17.328125 -19.25 C 18.210938 -18.382812 18.894531 -17.332031 19.375 -16.09375 C 19.863281 -14.863281 20.109375 -13.488281 20.109375 -11.96875 Z M 13.171875 -11.5625 C 13.171875 -12.007812 13.101562 -12.441406 12.96875 -12.859375 C 12.84375 -13.285156 12.65625 -13.660156 12.40625 -13.984375 C 12.15625 -14.316406 11.84375 -14.582031 11.46875 -14.78125 C 11.101562 -14.988281 10.679688 -15.09375 10.203125 -15.09375 C 9.710938 -15.09375 9.273438 -15.003906 8.890625 -14.828125 C 8.503906 -14.648438 8.171875 -14.40625 7.890625 -14.09375 C 7.617188 -13.789062 7.410156 -13.429688 7.265625 -13.015625 C 7.117188 -12.609375 7.046875 -12.175781 7.046875 -11.71875 C 7.046875 -11.28125 7.109375 -10.84375 7.234375 -10.40625 C 7.359375 -9.96875 7.546875 -9.570312 7.796875 -9.21875 C 8.046875 -8.863281 8.351562 -8.578125 8.71875 -8.359375 C 9.09375 -8.140625 9.523438 -8.03125 10.015625 -8.03125 C 10.503906 -8.03125 10.941406 -8.125 11.328125 -8.3125 C 11.722656 -8.507812 12.054688 -8.769531 12.328125 -9.09375 C 12.597656 -9.425781 12.804688 -9.804688 12.953125 -10.234375 C 13.097656 -10.660156 13.171875 -11.101562 13.171875 -11.5625 Z M 13.171875 -11.5625 "/></g></g></g><g fill="#000000" fill-opacity="1"><g transform="translate(307.117426, 314.144083)"><g><path d="M 19.421875 -22 C 18.953125 -18.332031 18.550781 -14.679688 18.21875 -11.046875 C 17.882812 -7.421875 17.566406 -3.769531 17.265625 -0.09375 L 10.859375 0.375 L 11.140625 -2.03125 C 10.929688 -1.789062 10.6875 -1.582031 10.40625 -1.40625 C 10.132812 -1.226562 9.84375 -1.082031 9.53125 -0.96875 C 9.21875 -0.863281 8.894531 -0.785156 8.5625 -0.734375 C 8.226562 -0.691406 7.910156 -0.675781 7.609375 -0.6875 C 6.898438 -0.695312 6.234375 -0.832031 5.609375 -1.09375 C 4.984375 -1.363281 4.410156 -1.71875 3.890625 -2.15625 C 3.367188 -2.601562 2.898438 -3.117188 2.484375 -3.703125 C 2.066406 -4.296875 1.710938 -4.914062 1.421875 -5.5625 C 1.140625 -6.21875 0.921875 -6.882812 0.765625 -7.5625 C 0.617188 -8.238281 0.546875 -8.894531 0.546875 -9.53125 C 0.546875 -10.46875 0.5625 -11.4375 0.59375 -12.4375 C 0.632812 -13.445312 0.703125 -14.457031 0.796875 -15.46875 C 0.890625 -16.476562 1.007812 -17.476562 1.15625 -18.46875 C 1.3125 -19.457031 1.503906 -20.40625 1.734375 -21.3125 C 3.003906 -21.25 4.28125 -21.191406 5.5625 -21.140625 C 6.84375 -21.085938 8.117188 -21.070312 9.390625 -21.09375 C 9.148438 -20.1875 8.910156 -19.273438 8.671875 -18.359375 C 8.441406 -17.453125 8.234375 -16.535156 8.046875 -15.609375 C 7.859375 -14.691406 7.707031 -13.769531 7.59375 -12.84375 C 7.476562 -11.914062 7.421875 -10.976562 7.421875 -10.03125 C 7.421875 -9.8125 7.429688 -9.5 7.453125 -9.09375 C 7.472656 -8.6875 7.523438 -8.285156 7.609375 -7.890625 C 7.703125 -7.492188 7.835938 -7.144531 8.015625 -6.84375 C 8.203125 -6.550781 8.460938 -6.40625 8.796875 -6.40625 C 9.191406 -6.40625 9.546875 -6.570312 9.859375 -6.90625 C 10.171875 -7.25 10.445312 -7.707031 10.6875 -8.28125 C 10.925781 -8.851562 11.128906 -9.515625 11.296875 -10.265625 C 11.472656 -11.015625 11.617188 -11.796875 11.734375 -12.609375 C 11.859375 -13.429688 11.957031 -14.257812 12.03125 -15.09375 C 12.101562 -15.925781 12.15625 -16.707031 12.1875 -17.4375 C 12.226562 -18.175781 12.253906 -18.835938 12.265625 -19.421875 C 12.285156 -20.003906 12.296875 -20.457031 12.296875 -20.78125 C 12.296875 -20.988281 12.289062 -21.191406 12.28125 -21.390625 C 12.269531 -21.585938 12.253906 -21.789062 12.234375 -22 C 12.910156 -21.976562 13.582031 -21.960938 14.25 -21.953125 C 14.914062 -21.941406 15.585938 -21.9375 16.265625 -21.9375 C 16.785156 -21.9375 17.304688 -21.9375 17.828125 -21.9375 C 18.359375 -21.945312 18.890625 -21.96875 19.421875 -22 Z M 19.421875 -22 "/></g></g></g><g fill="#000000" fill-opacity="1"><g transform="translate(326.675149, 314.144083)"><g><path d="M 8.453125 -23.21875 L 7.171875 -6.78125 L 1.390625 -6.78125 L 0.796875 -23.21875 Z M 7.421875 -1.96875 C 7.421875 -1.507812 7.332031 -1.082031 7.15625 -0.6875 C 6.976562 -0.289062 6.738281 0.0507812 6.4375 0.34375 C 6.144531 0.644531 5.800781 0.878906 5.40625 1.046875 C 5.007812 1.222656 4.585938 1.3125 4.140625 1.3125 C 3.679688 1.3125 3.253906 1.222656 2.859375 1.046875 C 2.460938 0.878906 2.113281 0.644531 1.8125 0.34375 C 1.519531 0.0507812 1.285156 -0.289062 1.109375 -0.6875 C 0.941406 -1.082031 0.859375 -1.507812 0.859375 -1.96875 C 0.859375 -2.414062 0.941406 -2.84375 1.109375 -3.25 C 1.285156 -3.65625 1.519531 -4.003906 1.8125 -4.296875 C 2.113281 -4.597656 2.460938 -4.835938 2.859375 -5.015625 C 3.253906 -5.191406 3.679688 -5.28125 4.140625 -5.28125 C 4.585938 -5.28125 5.007812 -5.191406 5.40625 -5.015625 C 5.800781 -4.835938 6.144531 -4.597656 6.4375 -4.296875 C 6.738281 -4.003906 6.976562 -3.65625 7.15625 -3.25 C 7.332031 -2.84375 7.421875 -2.414062 7.421875 -1.96875 Z M 7.421875 -1.96875 "/></g></g></g><g fill="#000000" fill-opacity="1"><g transform="translate(335.610466, 314.144083)"><g/></g></g><g fill="#000000" fill-opacity="1"><g transform="translate(341.85894, 314.144083)"><g><path d="M 16.28125 -21.96875 L 15.40625 -15.375 C 15.101562 -15.457031 14.800781 -15.515625 14.5 -15.546875 C 14.195312 -15.578125 13.894531 -15.59375 13.59375 -15.59375 C 12.820312 -15.59375 12.085938 -15.488281 11.390625 -15.28125 C 10.691406 -15.082031 10.070312 -14.773438 9.53125 -14.359375 C 9 -13.941406 8.570312 -13.421875 8.25 -12.796875 C 7.9375 -12.171875 7.78125 -11.4375 7.78125 -10.59375 C 7.78125 -10.050781 7.863281 -9.582031 8.03125 -9.1875 C 8.207031 -8.789062 8.453125 -8.460938 8.765625 -8.203125 C 9.078125 -7.941406 9.445312 -7.75 9.875 -7.625 C 10.300781 -7.5 10.769531 -7.4375 11.28125 -7.4375 C 11.664062 -7.4375 12.066406 -7.476562 12.484375 -7.5625 C 12.898438 -7.644531 13.3125 -7.753906 13.71875 -7.890625 C 14.125 -8.023438 14.519531 -8.179688 14.90625 -8.359375 C 15.289062 -8.535156 15.644531 -8.71875 15.96875 -8.90625 L 15.34375 -1.5625 C 14.9375 -1.351562 14.492188 -1.164062 14.015625 -1 C 13.546875 -0.84375 13.0625 -0.703125 12.5625 -0.578125 C 12.0625 -0.460938 11.5625 -0.375 11.0625 -0.3125 C 10.5625 -0.25 10.082031 -0.21875 9.625 -0.21875 C 8.300781 -0.21875 7.066406 -0.460938 5.921875 -0.953125 C 4.773438 -1.441406 3.78125 -2.113281 2.9375 -2.96875 C 2.09375 -3.820312 1.425781 -4.828125 0.9375 -5.984375 C 0.457031 -7.148438 0.21875 -8.40625 0.21875 -9.75 C 0.21875 -11.53125 0.472656 -13.207031 0.984375 -14.78125 C 1.492188 -16.363281 2.242188 -17.75 3.234375 -18.9375 C 4.222656 -20.125 5.445312 -21.0625 6.90625 -21.75 C 8.375 -22.4375 10.0625 -22.78125 11.96875 -22.78125 C 12.6875 -22.78125 13.421875 -22.722656 14.171875 -22.609375 C 14.929688 -22.492188 15.632812 -22.28125 16.28125 -21.96875 Z M 16.28125 -21.96875 "/></g></g></g><g fill="#000000" fill-opacity="1"><g transform="translate(358.073707, 314.144083)"><g><path d="M 20.109375 -11.96875 C 20.109375 -11.019531 20 -10.101562 19.78125 -9.21875 C 19.5625 -8.34375 19.242188 -7.519531 18.828125 -6.75 C 18.421875 -5.976562 17.921875 -5.269531 17.328125 -4.625 C 16.742188 -3.988281 16.082031 -3.441406 15.34375 -2.984375 C 14.613281 -2.523438 13.816406 -2.164062 12.953125 -1.90625 C 12.085938 -1.65625 11.171875 -1.53125 10.203125 -1.53125 C 9.265625 -1.53125 8.367188 -1.648438 7.515625 -1.890625 C 6.671875 -2.128906 5.878906 -2.460938 5.140625 -2.890625 C 4.398438 -3.328125 3.726562 -3.847656 3.125 -4.453125 C 2.53125 -5.066406 2.019531 -5.742188 1.59375 -6.484375 C 1.175781 -7.234375 0.847656 -8.035156 0.609375 -8.890625 C 0.378906 -9.742188 0.265625 -10.632812 0.265625 -11.5625 C 0.265625 -12.46875 0.375 -13.351562 0.59375 -14.21875 C 0.8125 -15.09375 1.125 -15.914062 1.53125 -16.6875 C 1.945312 -17.457031 2.445312 -18.164062 3.03125 -18.8125 C 3.613281 -19.457031 4.265625 -20.015625 4.984375 -20.484375 C 5.710938 -20.953125 6.5 -21.316406 7.34375 -21.578125 C 8.1875 -21.835938 9.078125 -21.96875 10.015625 -21.96875 C 11.523438 -21.96875 12.898438 -21.734375 14.140625 -21.265625 C 15.390625 -20.796875 16.453125 -20.125 17.328125 -19.25 C 18.210938 -18.382812 18.894531 -17.332031 19.375 -16.09375 C 19.863281 -14.863281 20.109375 -13.488281 20.109375 -11.96875 Z M 13.171875 -11.5625 C 13.171875 -12.007812 13.101562 -12.441406 12.96875 -12.859375 C 12.84375 -13.285156 12.65625 -13.660156 12.40625 -13.984375 C 12.15625 -14.316406 11.84375 -14.582031 11.46875 -14.78125 C 11.101562 -14.988281 10.679688 -15.09375 10.203125 -15.09375 C 9.710938 -15.09375 9.273438 -15.003906 8.890625 -14.828125 C 8.503906 -14.648438 8.171875 -14.40625 7.890625 -14.09375 C 7.617188 -13.789062 7.410156 -13.429688 7.265625 -13.015625 C 7.117188 -12.609375 7.046875 -12.175781 7.046875 -11.71875 C 7.046875 -11.28125 7.109375 -10.84375 7.234375 -10.40625 C 7.359375 -9.96875 7.546875 -9.570312 7.796875 -9.21875 C 8.046875 -8.863281 8.351562 -8.578125 8.71875 -8.359375 C 9.09375 -8.140625 9.523438 -8.03125 10.015625 -8.03125 C 10.503906 -8.03125 10.941406 -8.125 11.328125 -8.3125 C 11.722656 -8.507812 12.054688 -8.769531 12.328125 -9.09375 C 12.597656 -9.425781 12.804688 -9.804688 12.953125 -10.234375 C 13.097656 -10.660156 13.171875 -11.101562 13.171875 -11.5625 Z M 13.171875 -11.5625 "/></g></g></g><g fill="#000000" fill-opacity="1"><g transform="translate(378.30313, 314.144083)"><g><path d="M 20.1875 -7.90625 C 20.1875 -6.726562 20.171875 -5.5625 20.140625 -4.40625 C 20.117188 -3.257812 20.082031 -2.101562 20.03125 -0.9375 L 11.03125 -1.09375 C 11.34375 -2.9375 11.613281 -4.773438 11.84375 -6.609375 C 12.070312 -8.453125 12.1875 -10.3125 12.1875 -12.1875 C 12.1875 -12.320312 12.179688 -12.539062 12.171875 -12.84375 C 12.160156 -13.144531 12.140625 -13.484375 12.109375 -13.859375 C 12.078125 -14.242188 12.03125 -14.632812 11.96875 -15.03125 C 11.914062 -15.4375 11.835938 -15.804688 11.734375 -16.140625 C 11.640625 -16.472656 11.519531 -16.742188 11.375 -16.953125 C 11.238281 -17.171875 11.070312 -17.28125 10.875 -17.28125 C 10.519531 -17.28125 10.21875 -17.175781 9.96875 -16.96875 C 9.726562 -16.757812 9.523438 -16.488281 9.359375 -16.15625 C 9.203125 -15.832031 9.078125 -15.46875 8.984375 -15.0625 C 8.890625 -14.65625 8.816406 -14.25 8.765625 -13.84375 C 8.722656 -13.4375 8.691406 -13.050781 8.671875 -12.6875 C 8.660156 -12.332031 8.65625 -12.039062 8.65625 -11.8125 C 8.601562 -9.96875 8.5625 -8.132812 8.53125 -6.3125 C 8.5 -4.5 8.457031 -2.664062 8.40625 -0.8125 L 0.4375 -0.46875 C 0.644531 -4.144531 0.84375 -7.800781 1.03125 -11.4375 C 1.226562 -15.070312 1.382812 -18.726562 1.5 -22.40625 L 8.875 -22.78125 L 8.8125 -20.28125 C 9.101562 -20.632812 9.414062 -20.96875 9.75 -21.28125 C 10.09375 -21.59375 10.457031 -21.859375 10.84375 -22.078125 C 11.226562 -22.304688 11.632812 -22.484375 12.0625 -22.609375 C 12.5 -22.742188 12.957031 -22.8125 13.4375 -22.8125 C 14.320312 -22.8125 15.097656 -22.664062 15.765625 -22.375 C 16.429688 -22.082031 17.003906 -21.6875 17.484375 -21.1875 C 17.960938 -20.6875 18.363281 -20.09375 18.6875 -19.40625 C 19.007812 -18.726562 19.269531 -18.003906 19.46875 -17.234375 C 19.664062 -16.460938 19.816406 -15.65625 19.921875 -14.8125 C 20.023438 -13.976562 20.09375 -13.15625 20.125 -12.34375 C 20.164062 -11.53125 20.1875 -10.742188 20.1875 -9.984375 C 20.1875 -9.222656 20.1875 -8.53125 20.1875 -7.90625 Z M 20.1875 -7.90625 "/></g></g></g><g fill="#000000" fill-opacity="1"><g transform="translate(399.1574, 314.144083)"><g><path d="M 17.34375 -22.03125 L 17.1875 -15.40625 L 12.53125 -15.21875 L 11.96875 -0.71875 L 5.375 -0.375 L 4.78125 -14.875 L 0.125 -14.625 L 0.3125 -22 Z M 17.34375 -22.03125 "/></g></g></g><g fill="#000000" fill-opacity="1"><g transform="translate(416.590642, 314.144083)"><g><path d="M 8.953125 -22 L 7.859375 -0.71875 L 1.265625 -0.375 L 0.640625 -21.5625 Z M 8.953125 -22 "/></g></g></g><g fill="#000000" fill-opacity="1"><g transform="translate(426.010228, 314.144083)"><g><path d="M 20.1875 -7.90625 C 20.1875 -6.726562 20.171875 -5.5625 20.140625 -4.40625 C 20.117188 -3.257812 20.082031 -2.101562 20.03125 -0.9375 L 11.03125 -1.09375 C 11.34375 -2.9375 11.613281 -4.773438 11.84375 -6.609375 C 12.070312 -8.453125 12.1875 -10.3125 12.1875 -12.1875 C 12.1875 -12.320312 12.179688 -12.539062 12.171875 -12.84375 C 12.160156 -13.144531 12.140625 -13.484375 12.109375 -13.859375 C 12.078125 -14.242188 12.03125 -14.632812 11.96875 -15.03125 C 11.914062 -15.4375 11.835938 -15.804688 11.734375 -16.140625 C 11.640625 -16.472656 11.519531 -16.742188 11.375 -16.953125 C 11.238281 -17.171875 11.070312 -17.28125 10.875 -17.28125 C 10.519531 -17.28125 10.21875 -17.175781 9.96875 -16.96875 C 9.726562 -16.757812 9.523438 -16.488281 9.359375 -16.15625 C 9.203125 -15.832031 9.078125 -15.46875 8.984375 -15.0625 C 8.890625 -14.65625 8.816406 -14.25 8.765625 -13.84375 C 8.722656 -13.4375 8.691406 -13.050781 8.671875 -12.6875 C 8.660156 -12.332031 8.65625 -12.039062 8.65625 -11.8125 C 8.601562 -9.96875 8.5625 -8.132812 8.53125 -6.3125 C 8.5 -4.5 8.457031 -2.664062 8.40625 -0.8125 L 0.4375 -0.46875 C 0.644531 -4.144531 0.84375 -7.800781 1.03125 -11.4375 C 1.226562 -15.070312 1.382812 -18.726562 1.5 -22.40625 L 8.875 -22.78125 L 8.8125 -20.28125 C 9.101562 -20.632812 9.414062 -20.96875 9.75 -21.28125 C 10.09375 -21.59375 10.457031 -21.859375 10.84375 -22.078125 C 11.226562 -22.304688 11.632812 -22.484375 12.0625 -22.609375 C 12.5 -22.742188 12.957031 -22.8125 13.4375 -22.8125 C 14.320312 -22.8125 15.097656 -22.664062 15.765625 -22.375 C 16.429688 -22.082031 17.003906 -21.6875 17.484375 -21.1875 C 17.960938 -20.6875 18.363281 -20.09375 18.6875 -19.40625 C 19.007812 -18.726562 19.269531 -18.003906 19.46875 -17.234375 C 19.664062 -16.460938 19.816406 -15.65625 19.921875 -14.8125 C 20.023438 -13.976562 20.09375 -13.15625 20.125 -12.34375 C 20.164062 -11.53125 20.1875 -10.742188 20.1875 -9.984375 C 20.1875 -9.222656 20.1875 -8.53125 20.1875 -7.90625 Z M 20.1875 -7.90625 "/></g></g></g><g fill="#000000" fill-opacity="1"><g transform="translate(446.864521, 314.144083)"><g><path d="M 19.421875 -22 C 18.953125 -18.332031 18.550781 -14.679688 18.21875 -11.046875 C 17.882812 -7.421875 17.566406 -3.769531 17.265625 -0.09375 L 10.859375 0.375 L 11.140625 -2.03125 C 10.929688 -1.789062 10.6875 -1.582031 10.40625 -1.40625 C 10.132812 -1.226562 9.84375 -1.082031 9.53125 -0.96875 C 9.21875 -0.863281 8.894531 -0.785156 8.5625 -0.734375 C 8.226562 -0.691406 7.910156 -0.675781 7.609375 -0.6875 C 6.898438 -0.695312 6.234375 -0.832031 5.609375 -1.09375 C 4.984375 -1.363281 4.410156 -1.71875 3.890625 -2.15625 C 3.367188 -2.601562 2.898438 -3.117188 2.484375 -3.703125 C 2.066406 -4.296875 1.710938 -4.914062 1.421875 -5.5625 C 1.140625 -6.21875 0.921875 -6.882812 0.765625 -7.5625 C 0.617188 -8.238281 0.546875 -8.894531 0.546875 -9.53125 C 0.546875 -10.46875 0.5625 -11.4375 0.59375 -12.4375 C 0.632812 -13.445312 0.703125 -14.457031 0.796875 -15.46875 C 0.890625 -16.476562 1.007812 -17.476562 1.15625 -18.46875 C 1.3125 -19.457031 1.503906 -20.40625 1.734375 -21.3125 C 3.003906 -21.25 4.28125 -21.191406 5.5625 -21.140625 C 6.84375 -21.085938 8.117188 -21.070312 9.390625 -21.09375 C 9.148438 -20.1875 8.910156 -19.273438 8.671875 -18.359375 C 8.441406 -17.453125 8.234375 -16.535156 8.046875 -15.609375 C 7.859375 -14.691406 7.707031 -13.769531 7.59375 -12.84375 C 7.476562 -11.914062 7.421875 -10.976562 7.421875 -10.03125 C 7.421875 -9.8125 7.429688 -9.5 7.453125 -9.09375 C 7.472656 -8.6875 7.523438 -8.285156 7.609375 -7.890625 C 7.703125 -7.492188 7.835938 -7.144531 8.015625 -6.84375 C 8.203125 -6.550781 8.460938 -6.40625 8.796875 -6.40625 C 9.191406 -6.40625 9.546875 -6.570312 9.859375 -6.90625 C 10.171875 -7.25 10.445312 -7.707031 10.6875 -8.28125 C 10.925781 -8.851562 11.128906 -9.515625 11.296875 -10.265625 C 11.472656 -11.015625 11.617188 -11.796875 11.734375 -12.609375 C 11.859375 -13.429688 11.957031 -14.257812 12.03125 -15.09375 C 12.101562 -15.925781 12.15625 -16.707031 12.1875 -17.4375 C 12.226562 -18.175781 12.253906 -18.835938 12.265625 -19.421875 C 12.285156 -20.003906 12.296875 -20.457031 12.296875 -20.78125 C 12.296875 -20.988281 12.289062 -21.191406 12.28125 -21.390625 C 12.269531 -21.585938 12.253906 -21.789062 12.234375 -22 C 12.910156 -21.976562 13.582031 -21.960938 14.25 -21.953125 C 14.914062 -21.941406 15.585938 -21.9375 16.265625 -21.9375 C 16.785156 -21.9375 17.304688 -21.9375 17.828125 -21.9375 C 18.359375 -21.945312 18.890625 -21.96875 19.421875 -22 Z M 19.421875 -22 "/></g></g></g><g fill="#000000" fill-opacity="1"><g transform="translate(466.172282, 314.144083)"><g><path d="M 18.234375 -12.625 C 18.234375 -11.71875 18.171875 -10.8125 18.046875 -9.90625 C 16.265625 -9.789062 14.492188 -9.601562 12.734375 -9.34375 C 10.972656 -9.09375 9.210938 -8.84375 7.453125 -8.59375 C 7.722656 -7.84375 8.144531 -7.242188 8.71875 -6.796875 C 9.300781 -6.347656 9.992188 -6.125 10.796875 -6.125 C 11.210938 -6.125 11.664062 -6.203125 12.15625 -6.359375 C 12.65625 -6.515625 13.148438 -6.707031 13.640625 -6.9375 C 14.128906 -7.175781 14.597656 -7.429688 15.046875 -7.703125 C 15.492188 -7.972656 15.878906 -8.21875 16.203125 -8.4375 L 15.453125 -1.34375 C 15.046875 -1.03125 14.601562 -0.765625 14.125 -0.546875 C 13.65625 -0.328125 13.164062 -0.148438 12.65625 -0.015625 C 12.144531 0.117188 11.628906 0.21875 11.109375 0.28125 C 10.585938 0.34375 10.078125 0.375 9.578125 0.375 C 8.546875 0.375 7.601562 0.234375 6.75 -0.046875 C 5.894531 -0.328125 5.117188 -0.71875 4.421875 -1.21875 C 3.734375 -1.726562 3.128906 -2.328125 2.609375 -3.015625 C 2.085938 -3.703125 1.65625 -4.453125 1.3125 -5.265625 C 0.96875 -6.078125 0.707031 -6.9375 0.53125 -7.84375 C 0.351562 -8.75 0.265625 -9.664062 0.265625 -10.59375 C 0.265625 -11.5625 0.351562 -12.53125 0.53125 -13.5 C 0.707031 -14.46875 0.972656 -15.398438 1.328125 -16.296875 C 1.691406 -17.191406 2.144531 -18.019531 2.6875 -18.78125 C 3.238281 -19.550781 3.878906 -20.222656 4.609375 -20.796875 C 5.335938 -21.367188 6.160156 -21.816406 7.078125 -22.140625 C 8.003906 -22.460938 9.023438 -22.625 10.140625 -22.625 C 11.066406 -22.625 11.910156 -22.492188 12.671875 -22.234375 C 13.441406 -21.984375 14.125 -21.628906 14.71875 -21.171875 C 15.320312 -20.722656 15.84375 -20.1875 16.28125 -19.5625 C 16.726562 -18.9375 17.09375 -18.25 17.375 -17.5 C 17.664062 -16.757812 17.878906 -15.972656 18.015625 -15.140625 C 18.160156 -14.316406 18.234375 -13.476562 18.234375 -12.625 Z M 11.984375 -13.4375 C 11.984375 -13.726562 11.953125 -14.023438 11.890625 -14.328125 C 11.828125 -14.640625 11.722656 -14.921875 11.578125 -15.171875 C 11.441406 -15.421875 11.257812 -15.625 11.03125 -15.78125 C 10.800781 -15.945312 10.515625 -16.03125 10.171875 -16.03125 C 9.753906 -16.03125 9.382812 -15.914062 9.0625 -15.6875 C 8.75 -15.46875 8.476562 -15.1875 8.25 -14.84375 C 8.019531 -14.507812 7.832031 -14.144531 7.6875 -13.75 C 7.539062 -13.351562 7.429688 -12.988281 7.359375 -12.65625 L 11.984375 -13.09375 Z M 11.984375 -13.4375 "/></g></g></g><g fill="#000000" fill-opacity="1"><g transform="translate(249.500316, 358.394081)"><g><path d="M 20.5 -1.34375 L 12.75 -0.34375 L 11.8125 -3.875 L 8.25 -3.875 L 7.46875 -0.34375 L -0.5 -1.125 L 5.71875 -21.9375 L 14.40625 -22.375 Z M 11.25 -8.65625 L 10.0625 -14.09375 L 8.90625 -8.65625 Z M 11.25 -8.65625 "/></g></g></g><g fill="#000000" fill-opacity="1"><g transform="translate(269.526674, 358.394081)"><g><path d="M 16.8125 -8 C 16.8125 -6.570312 16.5625 -5.335938 16.0625 -4.296875 C 15.570312 -3.265625 14.894531 -2.410156 14.03125 -1.734375 C 13.175781 -1.066406 12.171875 -0.570312 11.015625 -0.25 C 9.867188 0.0625 8.632812 0.21875 7.3125 0.21875 C 6.800781 0.21875 6.238281 0.148438 5.625 0.015625 C 5.019531 -0.117188 4.40625 -0.285156 3.78125 -0.484375 C 3.15625 -0.691406 2.550781 -0.910156 1.96875 -1.140625 C 1.394531 -1.378906 0.882812 -1.601562 0.4375 -1.8125 L 1.125 -7.9375 C 2.007812 -7.40625 2.988281 -7 4.0625 -6.71875 C 5.144531 -6.445312 6.207031 -6.3125 7.25 -6.3125 C 7.445312 -6.3125 7.6875 -6.316406 7.96875 -6.328125 C 8.25 -6.347656 8.515625 -6.394531 8.765625 -6.46875 C 9.023438 -6.550781 9.242188 -6.671875 9.421875 -6.828125 C 9.597656 -6.984375 9.6875 -7.207031 9.6875 -7.5 C 9.6875 -7.695312 9.625 -7.863281 9.5 -8 C 9.375 -8.144531 9.210938 -8.257812 9.015625 -8.34375 C 8.816406 -8.4375 8.59375 -8.503906 8.34375 -8.546875 C 8.09375 -8.597656 7.847656 -8.632812 7.609375 -8.65625 C 7.367188 -8.675781 7.144531 -8.6875 6.9375 -8.6875 C 6.726562 -8.6875 6.5625 -8.6875 6.4375 -8.6875 C 5.539062 -8.6875 4.722656 -8.828125 3.984375 -9.109375 C 3.253906 -9.390625 2.625 -9.785156 2.09375 -10.296875 C 1.570312 -10.816406 1.164062 -11.441406 0.875 -12.171875 C 0.582031 -12.910156 0.4375 -13.726562 0.4375 -14.625 C 0.4375 -15.851562 0.679688 -16.953125 1.171875 -17.921875 C 1.671875 -18.898438 2.332031 -19.726562 3.15625 -20.40625 C 3.988281 -21.09375 4.941406 -21.617188 6.015625 -21.984375 C 7.085938 -22.347656 8.195312 -22.53125 9.34375 -22.53125 C 9.851562 -22.53125 10.378906 -22.507812 10.921875 -22.46875 C 11.460938 -22.4375 12 -22.375 12.53125 -22.28125 C 13.070312 -22.1875 13.597656 -22.066406 14.109375 -21.921875 C 14.617188 -21.773438 15.101562 -21.59375 15.5625 -21.375 L 14.96875 -15.03125 C 14.257812 -15.269531 13.515625 -15.46875 12.734375 -15.625 C 11.960938 -15.789062 11.207031 -15.875 10.46875 -15.875 C 10.332031 -15.875 10.15625 -15.867188 9.9375 -15.859375 C 9.726562 -15.859375 9.503906 -15.84375 9.265625 -15.8125 C 9.035156 -15.789062 8.800781 -15.753906 8.5625 -15.703125 C 8.320312 -15.648438 8.109375 -15.578125 7.921875 -15.484375 C 7.734375 -15.398438 7.582031 -15.285156 7.46875 -15.140625 C 7.351562 -14.992188 7.300781 -14.820312 7.3125 -14.625 C 7.320312 -14.394531 7.40625 -14.21875 7.5625 -14.09375 C 7.726562 -13.96875 7.9375 -13.875 8.1875 -13.8125 C 8.445312 -13.757812 8.726562 -13.734375 9.03125 -13.734375 C 9.34375 -13.734375 9.648438 -13.738281 9.953125 -13.75 C 10.253906 -13.769531 10.535156 -13.785156 10.796875 -13.796875 C 11.054688 -13.816406 11.269531 -13.820312 11.4375 -13.8125 C 12.269531 -13.757812 13.019531 -13.582031 13.6875 -13.28125 C 14.351562 -12.976562 14.914062 -12.578125 15.375 -12.078125 C 15.84375 -11.578125 16.195312 -10.976562 16.4375 -10.28125 C 16.6875 -9.59375 16.8125 -8.832031 16.8125 -8 Z M 16.8125 -8 "/></g></g></g><g fill="#000000" fill-opacity="1"><g transform="translate(286.381921, 358.394081)"><g><path d="M 16.8125 -8 C 16.8125 -6.570312 16.5625 -5.335938 16.0625 -4.296875 C 15.570312 -3.265625 14.894531 -2.410156 14.03125 -1.734375 C 13.175781 -1.066406 12.171875 -0.570312 11.015625 -0.25 C 9.867188 0.0625 8.632812 0.21875 7.3125 0.21875 C 6.800781 0.21875 6.238281 0.148438 5.625 0.015625 C 5.019531 -0.117188 4.40625 -0.285156 3.78125 -0.484375 C 3.15625 -0.691406 2.550781 -0.910156 1.96875 -1.140625 C 1.394531 -1.378906 0.882812 -1.601562 0.4375 -1.8125 L 1.125 -7.9375 C 2.007812 -7.40625 2.988281 -7 4.0625 -6.71875 C 5.144531 -6.445312 6.207031 -6.3125 7.25 -6.3125 C 7.445312 -6.3125 7.6875 -6.316406 7.96875 -6.328125 C 8.25 -6.347656 8.515625 -6.394531 8.765625 -6.46875 C 9.023438 -6.550781 9.242188 -6.671875 9.421875 -6.828125 C 9.597656 -6.984375 9.6875 -7.207031 9.6875 -7.5 C 9.6875 -7.695312 9.625 -7.863281 9.5 -8 C 9.375 -8.144531 9.210938 -8.257812 9.015625 -8.34375 C 8.816406 -8.4375 8.59375 -8.503906 8.34375 -8.546875 C 8.09375 -8.597656 7.847656 -8.632812 7.609375 -8.65625 C 7.367188 -8.675781 7.144531 -8.6875 6.9375 -8.6875 C 6.726562 -8.6875 6.5625 -8.6875 6.4375 -8.6875 C 5.539062 -8.6875 4.722656 -8.828125 3.984375 -9.109375 C 3.253906 -9.390625 2.625 -9.785156 2.09375 -10.296875 C 1.570312 -10.816406 1.164062 -11.441406 0.875 -12.171875 C 0.582031 -12.910156 0.4375 -13.726562 0.4375 -14.625 C 0.4375 -15.851562 0.679688 -16.953125 1.171875 -17.921875 C 1.671875 -18.898438 2.332031 -19.726562 3.15625 -20.40625 C 3.988281 -21.09375 4.941406 -21.617188 6.015625 -21.984375 C 7.085938 -22.347656 8.195312 -22.53125 9.34375 -22.53125 C 9.851562 -22.53125 10.378906 -22.507812 10.921875 -22.46875 C 11.460938 -22.4375 12 -22.375 12.53125 -22.28125 C 13.070312 -22.1875 13.597656 -22.066406 14.109375 -21.921875 C 14.617188 -21.773438 15.101562 -21.59375 15.5625 -21.375 L 14.96875 -15.03125 C 14.257812 -15.269531 13.515625 -15.46875 12.734375 -15.625 C 11.960938 -15.789062 11.207031 -15.875 10.46875 -15.875 C 10.332031 -15.875 10.15625 -15.867188 9.9375 -15.859375 C 9.726562 -15.859375 9.503906 -15.84375 9.265625 -15.8125 C 9.035156 -15.789062 8.800781 -15.753906 8.5625 -15.703125 C 8.320312 -15.648438 8.109375 -15.578125 7.921875 -15.484375 C 7.734375 -15.398438 7.582031 -15.285156 7.46875 -15.140625 C 7.351562 -14.992188 7.300781 -14.820312 7.3125 -14.625 C 7.320312 -14.394531 7.40625 -14.21875 7.5625 -14.09375 C 7.726562 -13.96875 7.9375 -13.875 8.1875 -13.8125 C 8.445312 -13.757812 8.726562 -13.734375 9.03125 -13.734375 C 9.34375 -13.734375 9.648438 -13.738281 9.953125 -13.75 C 10.253906 -13.769531 10.535156 -13.785156 10.796875 -13.796875 C 11.054688 -13.816406 11.269531 -13.820312 11.4375 -13.8125 C 12.269531 -13.757812 13.019531 -13.582031 13.6875 -13.28125 C 14.351562 -12.976562 14.914062 -12.578125 15.375 -12.078125 C 15.84375 -11.578125 16.195312 -10.976562 16.4375 -10.28125 C 16.6875 -9.59375 16.8125 -8.832031 16.8125 -8 Z M 16.8125 -8 "/></g></g></g><g fill="#000000" fill-opacity="1"><g transform="translate(303.393391, 358.394081)"><g><path d="M 8.953125 -22 L 7.859375 -0.71875 L 1.265625 -0.375 L 0.640625 -21.5625 Z M 8.953125 -22 "/></g></g></g><g fill="#000000" fill-opacity="1"><g transform="translate(312.812965, 358.394081)"><g><path d="M 28.109375 -10.59375 C 28.109375 -9.101562 28.0625 -7.617188 27.96875 -6.140625 C 27.875 -4.660156 27.765625 -3.175781 27.640625 -1.6875 L 19.609375 -1.3125 C 19.847656 -3.125 20.0625 -4.9375 20.25 -6.75 C 20.445312 -8.570312 20.546875 -10.394531 20.546875 -12.21875 C 20.546875 -12.332031 20.539062 -12.53125 20.53125 -12.8125 C 20.519531 -13.101562 20.5 -13.429688 20.46875 -13.796875 C 20.445312 -14.160156 20.410156 -14.535156 20.359375 -14.921875 C 20.316406 -15.316406 20.253906 -15.675781 20.171875 -16 C 20.097656 -16.332031 20.003906 -16.601562 19.890625 -16.8125 C 19.773438 -17.019531 19.640625 -17.125 19.484375 -17.125 C 19.117188 -17.125 18.832031 -16.984375 18.625 -16.703125 C 18.414062 -16.429688 18.257812 -16.101562 18.15625 -15.71875 C 18.0625 -15.332031 18.003906 -14.9375 17.984375 -14.53125 C 17.960938 -14.132812 17.953125 -13.8125 17.953125 -13.5625 C 17.953125 -13.125 17.960938 -12.6875 17.984375 -12.25 C 18.003906 -11.8125 18.015625 -11.363281 18.015625 -10.90625 C 18.015625 -9.289062 17.972656 -7.679688 17.890625 -6.078125 C 17.816406 -4.472656 17.722656 -2.863281 17.609375 -1.25 L 10.203125 -0.96875 C 10.441406 -2.78125 10.648438 -4.585938 10.828125 -6.390625 C 11.015625 -8.203125 11.109375 -10.019531 11.109375 -11.84375 C 11.109375 -11.957031 11.101562 -12.164062 11.09375 -12.46875 C 11.082031 -12.769531 11.0625 -13.109375 11.03125 -13.484375 C 11.007812 -13.859375 10.972656 -14.25 10.921875 -14.65625 C 10.867188 -15.0625 10.800781 -15.429688 10.71875 -15.765625 C 10.644531 -16.109375 10.550781 -16.390625 10.4375 -16.609375 C 10.320312 -16.828125 10.179688 -16.9375 10.015625 -16.9375 C 9.753906 -16.9375 9.535156 -16.832031 9.359375 -16.625 C 9.179688 -16.425781 9.035156 -16.164062 8.921875 -15.84375 C 8.816406 -15.519531 8.734375 -15.160156 8.671875 -14.765625 C 8.617188 -14.378906 8.578125 -14 8.546875 -13.625 C 8.523438 -13.25 8.507812 -12.898438 8.5 -12.578125 C 8.5 -12.265625 8.492188 -12.03125 8.484375 -11.875 L 8.140625 -0.46875 L 0.265625 -0.46875 C 0.429688 -2.226562 0.597656 -3.992188 0.765625 -5.765625 C 0.941406 -7.535156 1.09375 -9.300781 1.21875 -11.0625 C 1.351562 -12.832031 1.460938 -14.601562 1.546875 -16.375 C 1.628906 -18.144531 1.671875 -19.914062 1.671875 -21.6875 L 9.109375 -22 L 9.078125 -20.1875 C 9.304688 -20.476562 9.566406 -20.769531 9.859375 -21.0625 C 10.148438 -21.363281 10.457031 -21.628906 10.78125 -21.859375 C 11.113281 -22.097656 11.460938 -22.289062 11.828125 -22.4375 C 12.203125 -22.582031 12.585938 -22.65625 12.984375 -22.65625 C 13.492188 -22.65625 13.953125 -22.613281 14.359375 -22.53125 C 14.765625 -22.457031 15.128906 -22.328125 15.453125 -22.140625 C 15.785156 -21.953125 16.078125 -21.691406 16.328125 -21.359375 C 16.578125 -21.035156 16.796875 -20.625 16.984375 -20.125 C 17.316406 -20.488281 17.648438 -20.828125 17.984375 -21.140625 C 18.328125 -21.453125 18.6875 -21.71875 19.0625 -21.9375 C 19.4375 -22.164062 19.84375 -22.34375 20.28125 -22.46875 C 20.71875 -22.59375 21.203125 -22.65625 21.734375 -22.65625 C 22.742188 -22.65625 23.601562 -22.457031 24.3125 -22.0625 C 25.019531 -21.675781 25.609375 -21.160156 26.078125 -20.515625 C 26.554688 -19.867188 26.925781 -19.128906 27.1875 -18.296875 C 27.457031 -17.460938 27.660156 -16.597656 27.796875 -15.703125 C 27.929688 -14.804688 28.015625 -13.914062 28.046875 -13.03125 C 28.085938 -12.144531 28.109375 -11.332031 28.109375 -10.59375 Z M 28.109375 -10.59375 "/></g></g></g><g fill="#000000" fill-opacity="1"><g transform="translate(341.540324, 358.394081)"><g><path d="M 8.453125 -23.21875 L 7.171875 -6.78125 L 1.390625 -6.78125 L 0.796875 -23.21875 Z M 7.421875 -1.96875 C 7.421875 -1.507812 7.332031 -1.082031 7.15625 -0.6875 C 6.976562 -0.289062 6.738281 0.0507812 6.4375 0.34375 C 6.144531 0.644531 5.800781 0.878906 5.40625 1.046875 C 5.007812 1.222656 4.585938 1.3125 4.140625 1.3125 C 3.679688 1.3125 3.253906 1.222656 2.859375 1.046875 C 2.460938 0.878906 2.113281 0.644531 1.8125 0.34375 C 1.519531 0.0507812 1.285156 -0.289062 1.109375 -0.6875 C 0.941406 -1.082031 0.859375 -1.507812 0.859375 -1.96875 C 0.859375 -2.414062 0.941406 -2.84375 1.109375 -3.25 C 1.285156 -3.65625 1.519531 -4.003906 1.8125 -4.296875 C 2.113281 -4.597656 2.460938 -4.835938 2.859375 -5.015625 C 3.253906 -5.191406 3.679688 -5.28125 4.140625 -5.28125 C 4.585938 -5.28125 5.007812 -5.191406 5.40625 -5.015625 C 5.800781 -4.835938 6.144531 -4.597656 6.4375 -4.296875 C 6.738281 -4.003906 6.976562 -3.65625 7.15625 -3.25 C 7.332031 -2.84375 7.421875 -2.414062 7.421875 -1.96875 Z M 7.421875 -1.96875 "/></g></g></g></svg>